<svg version="1.1" id="Layer_1" xmlns="http://www.w3.org/2000/svg" xmlns:xlink="http://www.w3.org/1999/xlink" x="0px" y="0px"
	 width="100%" viewBox="0 0 192 192" enable-background="new 0 0 192 192" xml:space="preserve">
<path fill="#2E2E30" opacity="1.000000" stroke="none" 
	d="
M8.999999,193.000000 
	C6.337742,193.000000 3.675483,193.000000 1.009919,193.000000 
	C1.006613,129.110214 1.006613,65.220421 1.006613,1.000000 
	C22.353090,1.000000 43.707886,1.000000 65.411659,1.256231 
	C65.502884,2.016370 65.245125,2.520278 64.990715,3.012549 
	C64.994057,3.000914 65.016106,3.010628 64.673019,3.058033 
	C62.556637,4.406225 60.783340,5.707011 59.005112,7.004256 
	C59.000183,7.000715 59.007561,7.012535 58.667664,7.067232 
	C56.889702,8.790392 55.451630,10.458856 53.868446,12.387798 
	C52.621796,13.781173 51.520256,14.914068 50.141701,16.154217 
	C49.573841,16.522362 49.282997,16.783251 48.962791,17.399300 
	C46.955597,21.165508 44.977760,24.576557 42.794785,28.182417 
	C42.395809,28.899220 42.201969,29.421207 41.808800,30.091873 
	C41.358482,30.461899 41.150215,30.717995 40.993858,31.005621 
	C41.003040,31.002409 41.003246,30.982962 40.792839,31.184666 
	C40.382233,31.924543 40.182037,32.462719 39.993095,33.000473 
	C40.004341,33.000050 39.990219,32.982086 39.697762,33.178574 
	C39.267925,35.292206 39.130550,37.209351 39.112892,39.298721 
	C39.414803,39.687473 39.629078,39.865356 40.096806,40.211754 
	C40.877300,40.618832 41.436424,40.818748 41.992744,41.006535 
	C41.989944,40.994400 41.973984,41.015461 41.911980,41.352104 
	C41.538540,42.786877 41.227104,43.885010 40.630348,45.180538 
	C39.947338,49.465359 39.249863,53.559444 39.340515,57.636005 
	C39.366615,58.809772 41.663593,59.933048 42.959221,61.447472 
	C43.999138,63.013695 44.957741,65.197784 46.006447,65.241943 
	C50.924206,65.449013 52.769794,68.437569 53.940544,72.524231 
	C54.118401,73.145058 55.161491,73.518021 56.020035,74.230911 
	C56.512455,75.219429 56.789227,75.982658 57.083702,77.117126 
	C57.552074,78.299767 58.002750,79.111176 58.652576,80.281631 
	C61.814987,89.660667 54.898468,94.988281 50.711422,101.996696 
	C53.084877,103.601883 55.439423,105.277580 57.877842,106.820740 
	C60.486485,108.471619 63.502922,109.826958 61.223812,113.888641 
	C60.506218,114.494209 60.060043,115.037430 59.705956,115.587021 
	C59.798042,115.593391 59.616085,115.624481 59.350803,115.743393 
	C58.708611,115.924637 58.331703,115.986977 57.791031,115.721634 
	C56.455395,113.040527 56.230450,109.006157 52.476433,110.277679 
	C50.839695,110.832062 49.662952,114.154221 49.166203,116.414734 
	C47.257084,125.102379 45.728680,133.873260 43.987717,142.599030 
	C43.836533,143.356766 43.213150,144.043320 42.734402,144.709244 
	C34.998428,155.469559 27.178703,166.170609 19.536020,176.996674 
	C15.854592,182.211517 12.501674,187.658264 8.999999,193.000000 
z"/>
<path fill="#2E2F30" opacity="1.000000" stroke="none" 
	d="
M144.000000,1.000000 
	C160.300613,1.000000 176.601227,1.000000 192.950928,1.000000 
	C192.950928,64.999969 192.950928,128.999985 192.950928,193.000000 
	C190.987808,193.000000 188.991821,193.000000 186.382156,192.647095 
	C184.066055,188.178116 182.857361,183.761414 180.568573,180.002335 
	C173.707687,168.734039 166.027435,157.949982 159.482666,146.510269 
	C156.441132,141.193924 152.589050,139.680267 147.285843,139.583862 
	C145.093552,129.495819 142.801376,119.739761 140.540649,109.591011 
	C139.647659,103.831032 138.723236,98.463722 138.063812,92.838875 
	C141.546326,85.072037 144.763824,77.562744 148.236130,69.803055 
	C150.002121,64.382332 151.513321,59.211987 153.339645,53.884521 
	C154.798172,53.496845 155.941589,53.266300 157.278183,53.052818 
	C157.471375,53.069881 157.859024,53.082813 157.934052,53.366730 
	C158.439240,54.125900 158.869415,54.601158 160.217346,56.090363 
	C159.687088,53.374218 159.214127,52.013878 159.257843,50.670349 
	C159.276199,50.106522 160.388397,49.578289 161.158112,49.274483 
	C163.961761,50.886848 164.102051,49.513653 163.371460,47.526367 
	C162.328979,44.690777 161.134003,41.911255 160.054977,38.777054 
	C160.735596,37.294842 161.365402,36.143368 161.997604,34.995796 
	C162.000000,34.999695 161.994705,34.995350 162.200500,34.871002 
	C162.663391,34.543842 162.859573,34.293354 162.996750,33.997955 
	C162.998611,34.000725 162.987915,33.995403 163.274780,33.917946 
	C163.373962,29.899446 160.363220,32.966896 158.990189,31.996538 
	C159.000763,31.998262 159.014969,32.014393 158.820312,31.808548 
	C158.101761,31.418377 157.577866,31.234051 156.898819,30.737270 
	C154.569321,27.602400 152.394943,24.779982 150.162811,21.669750 
	C150.058029,20.993900 150.011002,20.605864 149.932465,19.882504 
	C149.278671,18.685938 148.656387,17.824694 147.947983,16.668667 
	C147.242233,15.897957 146.622604,15.422027 145.859344,14.704342 
	C145.157883,13.979078 144.600098,13.495568 144.099197,12.644457 
	C146.153488,8.489535 145.463104,4.739419 144.000000,1.000000 
z"/>
<path fill="#E0E3EB" opacity="1.000000" stroke="none" 
	d="
M147.185959,139.915833 
	C152.589050,139.680267 156.441132,141.193924 159.482666,146.510269 
	C166.027435,157.949982 173.707687,168.734039 180.568573,180.002335 
	C182.857361,183.761414 184.066055,188.178116 185.884247,192.647095 
	C183.299988,193.000000 180.599976,193.000000 177.380249,192.662918 
	C176.072556,191.654190 175.284592,190.982544 174.496628,190.310898 
	C173.997757,191.207260 173.498871,192.103638 173.000000,193.000000 
	C161.645767,193.000000 150.291550,193.000000 138.610275,192.699097 
	C140.235825,190.584122 142.188416,188.770020 144.288452,186.858490 
	C144.623184,186.615784 144.785217,186.446365 145.265045,186.147537 
	C148.455902,184.121735 151.303726,182.201187 154.345490,180.390472 
	C155.023956,180.063278 155.508499,179.626266 156.393402,179.134811 
	C157.866821,179.128372 158.939850,179.176376 160.102066,179.488159 
	C160.813477,180.001144 161.435730,180.250381 162.057968,180.499619 
	C161.726227,180.005600 161.394501,179.511566 161.049591,178.630157 
	C159.023544,174.344528 152.067032,172.103912 148.961044,175.332230 
	C143.781601,180.715652 139.601089,187.060150 135.000000,193.000000 
	C132.958328,193.000000 130.916672,193.000000 128.476791,192.638275 
	C130.710434,188.173187 133.165802,183.942337 136.016068,179.996765 
	C140.145416,174.280579 144.658264,168.841385 148.785858,163.123993 
	C149.841522,161.661713 150.063843,159.597824 150.669037,157.810349 
	C150.103699,157.462708 149.538361,157.115067 148.973022,156.767441 
	C145.734146,159.676682 142.234604,162.347153 139.307999,165.542419 
	C132.123077,173.386993 124.987190,181.361938 125.000000,193.000000 
	C105.312439,193.000000 85.624878,193.000000 65.486343,192.587784 
	C65.386841,189.280182 65.738312,186.384781 66.089775,183.489380 
	C65.403801,183.278214 64.717827,183.067047 64.031853,182.855881 
	C62.354565,186.237244 60.677280,189.618622 59.000000,193.000000 
	C54.310745,193.000000 49.621487,193.000000 44.435387,192.633194 
	C44.233368,190.840134 44.528194,189.413879 44.937744,187.664764 
	C45.087986,186.887802 45.123505,186.433685 45.231464,185.726074 
	C45.255836,185.137115 45.207771,184.801651 45.499344,184.364212 
	C49.152813,180.955093 53.690990,178.215530 55.539112,174.228912 
	C60.139343,164.305695 71.033440,164.678879 78.075165,159.355835 
	C77.050331,164.683273 75.982513,169.595764 74.914703,174.508255 
	C75.236427,174.672379 75.558151,174.836487 75.879875,175.000610 
	C78.324577,170.156876 80.769279,165.313126 83.517860,160.290192 
	C85.957039,158.310562 88.092339,156.510147 90.184212,155.106445 
	C87.171913,161.325134 86.228111,167.511322 86.270699,173.874924 
	C86.772972,174.096954 87.275246,174.318970 87.777519,174.541000 
	C90.862686,168.986923 93.947853,163.432846 97.357834,157.879730 
	C98.096169,157.763672 98.509682,157.646667 99.189575,157.367523 
	C99.914391,157.939102 100.372833,158.672836 101.280182,159.561234 
	C104.834808,159.844498 107.940521,159.973099 111.367935,160.078140 
	C112.118149,160.019287 112.546669,159.983994 113.270996,159.988098 
	C115.043510,159.670609 116.520226,159.313721 118.255127,158.855164 
	C119.000488,158.487350 119.487679,158.221176 120.183823,157.839172 
	C120.658836,157.539368 120.877853,157.310425 121.245651,156.907318 
	C121.694130,156.588745 121.910706,156.364502 122.416107,156.096481 
	C123.174164,156.075333 123.607315,156.063080 124.133194,156.150574 
	C124.225937,156.250305 124.596786,156.286407 124.596786,156.286407 
	C124.596786,156.286407 124.840996,155.988800 124.893463,155.750656 
	C124.945938,155.512512 125.034843,155.032959 125.334465,154.850815 
	C129.070740,152.443665 132.507385,150.218658 136.276932,147.920395 
	C138.407547,145.895157 140.205261,143.943176 142.039185,142.206131 
	C143.778915,141.585999 145.482437,140.750916 147.185959,139.915833 
M169.155151,185.587234 
	C169.775223,185.926086 170.395279,186.264938 171.015350,186.603790 
	C171.139465,186.311905 171.263565,186.020035 171.387680,185.728149 
	C170.596573,185.480682 169.805450,185.233231 168.876846,184.309341 
	C167.741440,183.180145 166.606049,182.050934 165.470642,180.921738 
	C165.069275,181.484299 164.667908,182.046844 164.266525,182.609406 
	C165.839966,183.411224 167.413422,184.213058 169.155151,185.587234 
M98.480064,180.077255 
	C97.617828,181.702896 96.755600,183.328552 95.893364,184.954208 
	C96.552773,185.344696 97.212181,185.735199 97.871590,186.125702 
	C100.908684,182.173218 103.945770,178.220749 106.982857,174.268265 
	C106.252335,173.605301 105.521812,172.942337 104.791290,172.279373 
	C102.857605,174.708511 100.923920,177.137650 98.480064,180.077255 
M97.138802,166.417023 
	C97.076881,166.095367 97.014961,165.773697 96.953041,165.452042 
	C96.879677,165.768448 96.806305,166.084839 97.138802,166.417023 
z"/>
<path fill="#C6A18E" opacity="1.000000" stroke="none" 
	d="
M45.159702,184.466202 
	C45.207771,184.801651 45.255836,185.137115 44.962791,185.782791 
	C44.688793,186.724548 44.755905,187.356094 44.823021,187.987625 
	C44.528194,189.413879 44.233368,190.840134 43.969269,192.633194 
	C36.312424,193.000000 28.624847,193.000000 20.571449,192.673523 
	C28.772884,179.220917 37.340141,166.094803 46.205574,152.975922 
	C47.230736,152.923767 47.957714,152.864395 48.684692,152.805008 
	C48.714962,152.565659 48.745232,152.326294 48.775501,152.086945 
	C47.807789,151.778122 46.840076,151.469299 45.594353,151.048904 
	C45.181122,150.432617 44.902122,149.494080 44.931000,149.484512 
	C50.462196,147.651337 50.754215,142.872818 51.034355,138.292953 
	C51.284058,134.210709 51.070110,130.100098 51.381077,126.063812 
	C55.657192,127.560524 59.282146,129.351257 60.569496,134.018600 
	C60.774967,129.601898 60.980442,125.185204 61.142864,121.693817 
	C57.715363,121.399010 55.342499,121.194923 53.126030,120.702255 
	C54.708527,119.540184 56.134632,118.666687 57.861629,117.899323 
	C58.647045,117.211800 59.131565,116.418144 59.616085,115.624481 
	C59.616085,115.624481 59.798042,115.593391 60.049873,115.738945 
	C61.195461,116.254517 62.089222,116.624535 63.118565,117.307922 
	C63.344460,117.830238 63.434769,118.039185 63.439369,118.525330 
	C63.965733,119.250801 64.577812,119.699081 65.587860,120.099014 
	C67.318306,119.961281 68.650780,119.871887 70.227180,119.855148 
	C70.639214,119.948868 70.807320,119.969925 71.184563,120.226227 
	C70.422058,121.962456 69.752151,123.938515 68.380501,124.809708 
	C67.338203,125.471710 65.403465,124.728607 63.688683,124.597115 
	C63.990795,125.714317 64.033615,126.976524 64.636948,127.852814 
	C65.615128,129.273529 66.960938,130.441101 68.151535,131.715546 
	C69.026199,130.504501 70.090729,129.385162 70.730515,128.060669 
	C71.663506,126.129150 72.291100,124.050110 73.276871,122.228729 
	C74.324005,122.946190 75.143143,123.468887 75.970825,124.243790 
	C75.986176,124.664101 75.992973,124.832207 76.035385,125.298599 
	C76.361176,126.110718 76.651352,126.624542 77.010315,127.379227 
	C77.707390,127.811562 78.335670,128.003052 79.267899,128.114334 
	C80.078720,127.679131 80.585587,127.324120 81.278450,126.770859 
	C81.642914,126.063263 81.821388,125.553917 82.248581,125.041786 
	C82.497299,125.039009 82.994705,125.031036 82.996033,125.384476 
	C83.011948,126.209373 83.026535,126.680824 83.031921,127.473129 
	C83.023232,128.221878 83.023743,128.649765 83.068359,129.450806 
	C83.675575,131.454742 84.238678,133.085556 84.341736,134.774658 
	C83.266136,134.886887 82.650574,134.940811 81.885391,134.745850 
	C81.157059,133.998169 80.578362,133.499390 79.878082,132.743927 
	C79.202766,131.973557 78.649025,131.459869 78.095291,130.946167 
	C77.728889,131.629852 77.362495,132.313522 76.916588,133.037445 
	C76.837074,133.077698 76.823250,133.285583 76.823250,133.285583 
	C76.823250,133.285583 77.002838,133.003876 77.377548,133.002594 
	C78.501717,133.000656 79.251160,133.000015 79.865723,133.288559 
	C79.485039,134.384964 79.239250,135.192200 78.693634,136.011169 
	C77.918419,136.683426 77.443039,137.343964 77.108658,138.294418 
	C78.142960,139.417191 79.036263,140.250061 79.948280,141.268463 
	C79.966995,141.453995 80.005234,141.824982 79.820000,142.063843 
	C80.083992,143.808517 80.533211,145.314331 80.694672,146.911179 
	C80.006989,147.027267 79.607071,147.052322 78.881348,147.113113 
	C78.013916,147.487747 77.472290,147.826630 76.564789,148.216644 
	C72.157036,149.560669 68.115166,150.853561 63.850960,151.928955 
	C63.057217,151.696030 62.485809,151.680618 61.914398,151.665192 
	C62.259502,152.261765 62.604610,152.858322 62.766579,153.757935 
	C54.845348,163.089966 49.192776,173.314056 45.159702,184.466202 
M67.767357,133.708618 
	C67.550972,133.651184 67.334587,133.593750 67.118202,133.536301 
	C67.406654,133.690475 67.695107,133.844650 68.556763,134.445694 
	C70.158356,134.616440 71.759956,134.787201 73.361549,134.957962 
	C73.373459,134.633896 73.385368,134.309845 73.397278,133.985779 
	C71.595535,133.985779 69.793800,133.985779 67.767357,133.708618 
M52.580120,151.129486 
	C52.834530,151.150330 53.088936,151.171188 53.343349,151.192047 
	C53.347271,151.047958 53.351192,150.903854 53.355114,150.759766 
	C53.099754,150.769791 52.844391,150.779800 52.580120,151.129486 
M64.545937,135.026825 
	C64.323265,135.019211 64.099152,134.997833 63.879692,135.020828 
	C63.851295,135.023804 63.846901,135.255951 63.831387,135.381943 
	C64.057114,135.362534 64.282837,135.343140 64.545937,135.026825 
M59.497135,138.529770 
	C59.497135,138.529770 59.479797,138.486130 59.497135,138.529770 
z"/>
<path fill="#F4E1C9" opacity="1.000000" stroke="none" 
	d="
M57.560738,117.793198 
	C56.134632,118.666687 54.708527,119.540184 52.817368,120.884682 
	C51.921799,122.904457 51.491287,124.453239 51.060776,126.002014 
	C51.070110,130.100098 51.284058,134.210709 51.034355,138.292953 
	C50.754215,142.872818 50.462196,147.651337 44.931000,149.484512 
	C44.902122,149.494080 45.181122,150.432617 45.599289,151.349884 
	C45.890621,152.164536 45.899010,152.566605 45.907394,152.968689 
	C37.340141,166.094803 28.772884,179.220917 20.102814,192.673523 
	C16.638712,193.000000 13.277425,193.000000 9.458068,193.000000 
	C12.501674,187.658264 15.854592,182.211517 19.536020,176.996674 
	C27.178703,166.170609 34.998428,155.469559 42.734402,144.709244 
	C43.213150,144.043320 43.836533,143.356766 43.987717,142.599030 
	C45.728680,133.873260 47.257084,125.102379 49.166203,116.414734 
	C49.662952,114.154221 50.839695,110.832062 52.476433,110.277679 
	C56.230450,109.006157 56.455395,113.040527 57.720238,116.011337 
	C57.729046,117.016884 57.644890,117.405037 57.560738,117.793198 
z"/>
<path fill="#43362E" opacity="1.000000" stroke="none" 
	d="
M72.000000,1.000000 
	C74.370560,1.000000 76.741112,1.000000 79.760162,1.226806 
	C81.271332,1.968665 82.134003,2.483717 82.657089,3.055176 
	C80.543602,4.407630 78.769699,5.703679 76.738480,7.064517 
	C76.663208,7.752080 76.845245,8.374854 77.025421,9.329389 
	C77.021248,10.103491 77.018951,10.545834 76.787697,11.285032 
	C75.767708,13.832928 74.891891,18.046095 74.199417,18.016172 
	C69.746254,17.823753 64.558746,21.043154 60.746655,15.681801 
	C59.073341,14.248267 57.546574,13.096357 56.178513,11.662724 
	C57.227333,9.924847 58.117447,8.468691 59.007561,7.012535 
	C59.007561,7.012535 59.000183,7.000715 59.370407,6.987066 
	C61.499119,5.652488 63.257614,4.331558 65.016106,3.010629 
	C65.016106,3.010628 64.994057,3.000914 65.410332,3.000179 
	C67.884407,2.332963 69.942200,1.666481 72.000000,1.000000 
z"/>
<path fill="#B2A3A9" opacity="1.000000" stroke="none" 
	d="
M125.375000,193.000000 
	C124.987190,181.361938 132.123077,173.386993 139.307999,165.542419 
	C142.234604,162.347153 145.734146,159.676682 148.973022,156.767441 
	C149.538361,157.115067 150.103699,157.462708 150.669037,157.810349 
	C150.063843,159.597824 149.841522,161.661713 148.785858,163.123993 
	C144.658264,168.841385 140.145416,174.280579 136.016068,179.996765 
	C133.165802,183.942337 130.710434,188.173187 128.039291,192.638275 
	C127.250000,193.000000 126.500000,193.000000 125.375000,193.000000 
z"/>
<path fill="#483B33" opacity="1.000000" stroke="none" 
	d="
M103.000000,1.000000 
	C103.444336,1.000000 103.888672,1.000000 104.673225,1.388001 
	C104.605042,6.815151 108.797386,8.198705 112.011398,9.842566 
	C117.631622,12.717133 123.562500,15.034807 130.333786,12.003237 
	C131.111206,12.003274 131.555450,12.003134 132.212891,12.202076 
	C133.284073,12.267937 134.142029,12.134716 135.406189,12.002007 
	C136.895523,12.011680 137.978668,12.020839 139.145111,12.304075 
	C138.155167,13.721248 137.081955,14.864343 135.688782,15.872654 
	C127.854614,15.484678 120.227821,15.948671 112.855431,14.791672 
	C104.186378,13.431177 99.208298,11.691301 99.375397,3.023943 
	C100.825218,2.342030 101.912613,1.671015 103.000000,1.000000 
z"/>
<path fill="#B2A3A9" opacity="1.000000" stroke="none" 
	d="
M154.151566,180.280655 
	C151.303726,182.201187 148.455902,184.121735 145.074387,186.179916 
	C144.300156,186.463104 144.166916,186.675888 144.140991,186.955917 
	C142.188416,188.770020 140.235825,190.584122 138.141617,192.699097 
	C137.250000,193.000000 136.500000,193.000000 135.375000,193.000000 
	C139.601089,187.060150 143.781601,180.715652 148.961044,175.332230 
	C152.067032,172.103912 159.023544,174.344528 160.786163,178.677551 
	C160.361542,179.149689 160.187225,179.187042 160.012894,179.224396 
	C158.939850,179.176376 157.866821,179.128372 156.107330,179.150803 
	C154.997772,179.574371 154.574677,179.927521 154.151566,180.280655 
z"/>
<path fill="#544840" opacity="1.000000" stroke="none" 
	d="
M130.000000,1.000000 
	C133.692902,1.000000 137.385818,1.000000 141.532928,1.357379 
	C141.334396,3.460480 140.681641,5.206203 139.807175,7.268134 
	C131.974487,10.677579 124.835411,7.430824 117.611855,5.797361 
	C116.901527,5.636734 116.545662,3.908538 116.479248,2.922950 
	C121.288818,2.291975 125.644409,1.645987 130.000000,1.000000 
z"/>
<path fill="#4F423A" opacity="1.000000" stroke="none" 
	d="
M116.025269,2.907937 
	C116.545662,3.908538 116.901527,5.636734 117.611855,5.797361 
	C124.835411,7.430824 131.974487,10.677579 140.131470,7.285554 
	C145.132950,7.003739 142.577133,9.338807 141.696640,11.054406 
	C140.609604,11.404912 139.835709,11.717455 139.061813,12.029999 
	C137.978668,12.020839 136.895523,12.011680 135.193329,11.802086 
	C133.716080,11.735433 132.857895,11.869213 131.999695,12.002994 
	C131.555450,12.003134 131.111206,12.003274 130.019943,11.771064 
	C125.355415,10.712383 121.215462,10.251190 117.354958,8.956659 
	C113.522240,7.671447 109.797272,5.726686 109.000000,1.000000 
	C110.066673,1.000000 111.133339,1.000000 112.694145,1.148320 
	C113.458855,1.197760 113.729424,1.098881 114.000000,1.000000 
	C114.444443,1.000000 114.888893,1.000000 115.638840,1.318103 
	C115.971321,2.060117 115.998299,2.484027 116.025269,2.907937 
z"/>
<path fill="#4C3F37" opacity="1.000000" stroke="none" 
	d="
M108.600006,1.000000 
	C109.797272,5.726686 113.522240,7.671447 117.354958,8.956659 
	C121.215462,10.251190 125.355415,10.712383 129.686768,11.770886 
	C123.562500,15.034807 117.631622,12.717133 112.011398,9.842566 
	C108.797386,8.198705 104.605042,6.815151 105.006721,1.388001 
	C106.066673,1.000000 107.133339,1.000000 108.600006,1.000000 
z"/>
<path fill="#32211B" opacity="1.000000" stroke="none" 
	d="
M76.995796,6.999729 
	C78.769699,5.703679 80.543602,4.407630 82.878418,3.235365 
	C84.626221,2.572767 85.813110,1.786384 87.000000,1.000001 
	C88.714355,1.000000 90.428719,1.000000 92.618561,1.313847 
	C93.394806,2.416924 93.695572,3.206152 93.680626,4.047236 
	C92.578423,4.423340 91.791931,4.747588 90.686127,5.204134 
	C86.246208,7.234453 82.125595,9.132475 77.757896,11.020111 
	C77.510803,11.009726 77.016655,10.988175 77.016655,10.988175 
	C77.018951,10.545834 77.021248,10.103491 77.024857,8.996332 
	C77.016029,7.887587 77.005913,7.443658 76.995796,6.999729 
z"/>
<path fill="#B4A5AC" opacity="1.000000" stroke="none" 
	d="
M59.428459,193.000000 
	C60.677280,189.618622 62.354565,186.237244 64.031853,182.855881 
	C64.717827,183.067047 65.403801,183.278214 66.089775,183.489380 
	C65.738312,186.384781 65.386841,189.280182 65.017685,192.587784 
	C63.285641,193.000000 61.571285,193.000000 59.428459,193.000000 
z"/>
<path fill="#2D1E1C" opacity="1.000000" stroke="none" 
	d="
M142.009781,11.016443 
	C142.577133,9.338807 145.132950,7.003739 140.353180,6.969345 
	C140.681641,5.206203 141.334396,3.460480 141.993561,1.357379 
	C142.444443,1.000000 142.888901,1.000000 143.666672,1.000000 
	C145.463104,4.739419 146.153488,8.489535 143.796066,12.569613 
	C142.960617,12.247060 142.485199,11.631751 142.009781,11.016443 
z"/>
<path fill="#311D1B" opacity="1.000000" stroke="none" 
	d="
M116.479248,2.922950 
	C115.998299,2.484027 115.971321,2.060117 115.972176,1.318103 
	C120.356903,1.000000 124.713806,1.000000 129.535355,1.000000 
	C125.644409,1.645987 121.288818,2.291975 116.479248,2.922950 
z"/>
<path fill="#3C2923" opacity="1.000000" stroke="none" 
	d="
M93.996346,3.995380 
	C93.695572,3.206152 93.394806,2.416924 93.047020,1.313847 
	C96.030594,1.000000 99.061188,1.000000 102.545891,1.000000 
	C101.912613,1.671015 100.825218,2.342030 99.007629,3.030498 
	C96.850403,3.363760 95.423370,3.679569 93.996346,3.995380 
z"/>
<path fill="#2E1714" opacity="1.000000" stroke="none" 
	d="
M86.562500,1.000001 
	C85.813110,1.786384 84.626221,2.572767 83.218002,3.178959 
	C82.134003,2.483717 81.271332,1.968665 80.204330,1.226806 
	C82.041664,1.000000 84.083336,1.000000 86.562500,1.000001 
z"/>
<path fill="#2E1714" opacity="1.000000" stroke="none" 
	d="
M71.571533,1.000000 
	C69.942200,1.666481 67.884407,2.332963 65.406990,3.011815 
	C65.245125,2.520278 65.502884,2.016370 65.880318,1.256231 
	C67.714355,1.000000 69.428719,1.000000 71.571533,1.000000 
z"/>
<path fill="#E0E3EB" opacity="1.000000" stroke="none" 
	d="
M173.399994,193.000000 
	C173.498871,192.103638 173.997757,191.207260 174.496628,190.310898 
	C175.284592,190.982544 176.072556,191.654190 176.930267,192.662918 
	C175.933334,193.000000 174.866653,193.000000 173.399994,193.000000 
z"/>
<path fill="#311D1B" opacity="1.000000" stroke="none" 
	d="
M113.750000,1.000000 
	C113.729424,1.098881 113.458855,1.197760 113.094139,1.148320 
	C113.000000,1.000000 113.500000,1.000000 113.750000,1.000000 
z"/>
<path fill="#F7E3CB" opacity="1.000000" stroke="none" 
	d="
M69.983246,119.782486 
	C68.650780,119.871887 67.318306,119.961281 65.377411,119.937851 
	C64.354355,119.299377 63.939716,118.773750 63.525078,118.248123 
	C63.434769,118.039185 63.344460,117.830238 63.108429,116.934418 
	C62.473549,115.440460 61.984390,114.633377 61.495232,113.826286 
	C63.502922,109.826958 60.486485,108.471619 57.877842,106.820740 
	C55.439423,105.277580 53.084877,103.601883 50.711422,101.996696 
	C54.898468,94.988281 61.814987,89.660667 58.606560,79.927261 
	C57.929596,78.391197 57.497795,77.568542 57.065998,76.745888 
	C56.789227,75.982658 56.512455,75.219429 55.929298,73.865753 
	C54.459202,69.092026 53.295498,64.908737 52.166260,60.341980 
	C52.234673,58.680996 52.268616,57.403488 52.625473,56.054214 
	C55.989807,52.369400 59.031231,48.756351 62.376934,44.961777 
	C69.772385,41.895744 76.863564,39.011234 84.076500,36.422775 
	C85.149895,38.144627 86.101532,39.570419 87.004532,41.445999 
	C87.424561,47.682842 88.057335,53.463192 88.294121,59.259716 
	C88.416451,62.254272 89.495247,63.869102 92.460373,64.364494 
	C97.772812,65.252045 100.285156,68.837456 101.335037,73.799988 
	C102.205894,77.916359 103.149536,82.017334 104.382439,87.574181 
	C105.814865,85.326134 106.671432,84.290901 107.193626,83.108055 
	C109.298004,78.341202 111.245300,73.504410 113.393715,68.758224 
	C113.734467,68.005447 114.737305,67.241646 115.557220,67.069443 
	C119.432991,66.255432 122.092896,68.493912 123.924850,71.381523 
	C125.386932,73.686134 122.482330,81.177536 119.926254,81.971603 
	C119.841942,80.168152 119.826317,78.538673 120.262444,77.040726 
	C120.972046,74.603493 121.349152,72.394394 118.269806,71.484802 
	C115.256256,70.594650 114.210258,72.664726 113.428192,74.999283 
	C113.220688,75.618683 112.935501,76.212051 112.399330,77.015579 
	C109.737267,79.085739 109.095192,81.313828 110.725296,84.392006 
	C113.084045,87.009415 115.434364,89.241867 118.050919,91.727203 
	C118.549721,91.727203 119.906761,91.727203 121.677528,91.773453 
	C127.327103,92.245277 132.562943,92.670853 137.798798,93.096420 
	C138.723236,98.463722 139.647659,103.831032 140.312454,109.665230 
	C139.722839,110.641174 139.392853,111.150215 138.839630,111.857529 
	C138.399261,112.379837 138.182114,112.703865 137.987579,113.018661 
	C138.010178,113.009422 138.012894,112.960670 137.699554,113.087425 
	C131.793457,118.712746 126.200684,124.211304 120.607910,129.709869 
	C120.951767,130.199677 121.295624,130.689484 121.639481,131.179291 
	C122.982750,130.822296 124.387268,130.609161 125.653061,130.070206 
	C127.084015,129.460922 128.390396,128.559052 129.750946,127.784416 
	C130.201813,128.095978 130.652695,128.407532 131.103577,128.719086 
	C130.021484,131.584152 128.939407,134.449203 127.670746,137.808289 
	C133.595459,136.182907 133.595459,136.182907 134.523926,141.085144 
	C132.358765,141.380646 130.464447,141.604370 128.852219,141.794785 
	C129.331421,144.497238 129.776031,147.004501 130.296341,149.938690 
	C128.285675,148.988037 126.909920,148.337585 124.377045,147.140030 
	C124.651367,150.431671 124.843109,152.732315 125.034843,155.032959 
	C125.034843,155.032959 124.945938,155.512512 124.694107,155.763184 
	C124.442268,156.013855 124.040459,156.050842 124.040459,156.050842 
	C123.607315,156.063080 123.174164,156.075333 122.200813,156.200562 
	C121.393494,156.500870 121.189903,156.741852 121.049828,157.036499 
	C120.877853,157.310425 120.658836,157.539368 119.990211,157.685242 
	C119.057404,158.083725 118.527168,158.520264 117.996933,158.956818 
	C116.520226,159.313721 115.043510,159.670609 113.098473,159.824951 
	C112.102180,159.782181 111.574211,159.941940 111.046242,160.101715 
	C107.940521,159.973099 104.834808,159.844498 101.207825,159.221497 
	C101.233780,157.952621 101.780991,157.178177 102.336365,156.382797 
	C102.344513,156.361877 102.344322,156.317001 102.594147,156.045715 
	C103.099022,153.496719 103.354080,151.218994 103.689659,148.631256 
	C103.720619,147.900101 103.671059,147.478973 103.709663,146.644348 
	C103.594246,143.160629 103.390678,140.090439 103.528946,137.030075 
	C107.594139,132.478897 111.249756,127.860352 115.060814,123.373840 
	C118.532356,119.287041 119.867378,115.048180 117.813171,109.720871 
	C116.653358,106.713066 116.554016,103.296349 115.964943,99.673386 
	C115.494034,97.202446 115.035172,95.121933 114.576302,93.041412 
	C113.908508,93.259422 113.240707,93.477425 112.572906,93.695435 
	C113.376099,95.794899 114.179291,97.894371 114.830109,100.352783 
	C112.752098,105.300842 111.607574,110.487022 108.683311,114.312866 
	C105.699516,118.216621 100.967133,120.783844 96.643440,123.964432 
	C91.865814,125.687653 87.445038,127.382660 83.024254,129.077667 
	C83.023743,128.649765 83.023232,128.221878 83.319000,127.516266 
	C84.407913,126.819191 85.200539,126.399834 86.230637,125.754715 
	C86.666924,124.682487 86.865723,123.836029 87.135544,122.804047 
	C87.206558,122.618523 87.313004,122.235748 87.506638,122.008163 
	C87.751495,121.196327 87.802727,120.612091 88.056564,119.780441 
	C88.811020,118.684853 89.362877,117.836655 90.040970,116.651779 
	C93.569672,109.559753 96.972130,102.804398 100.374588,96.049042 
	C100.007690,95.770355 99.640793,95.491661 99.273895,95.212967 
	C98.215218,95.830002 97.156540,96.447029 95.796356,96.989334 
	C93.742531,97.047737 91.427948,96.525795 90.353172,97.448296 
	C88.005287,99.463562 86.365494,102.281639 84.286903,104.639969 
	C82.691544,106.450035 80.867470,108.058533 78.850891,110.046753 
	C79.089439,110.851555 79.553398,112.416817 80.019936,114.263962 
	C80.030045,114.733612 80.037582,114.921387 79.792465,115.333252 
	C77.986221,117.148384 76.432648,118.739426 74.896461,120.249512 
	C74.913857,120.168564 74.987144,120.020073 74.878677,119.833023 
	C74.601265,119.409554 74.398811,119.206535 74.017296,118.758972 
	C73.242386,117.947357 72.613037,117.413689 71.992203,116.468620 
	C72.000717,113.674812 72.000717,111.292404 72.000717,108.910004 
	C71.569687,108.885757 71.138664,108.861519 70.707634,108.837280 
	C70.466171,112.485680 70.224709,116.134087 69.983246,119.782486 
M79.483536,95.344444 
	C83.469780,92.126778 83.640282,89.518425 79.219101,88.073059 
	C76.840637,89.099030 74.462166,90.124992 72.083702,91.150955 
	C72.106377,91.782539 72.129051,92.414124 72.151718,93.045708 
	C74.436508,93.702171 76.721291,94.358643 79.483536,95.344444 
M79.600235,77.946846 
	C82.303215,77.011696 82.021400,75.652351 79.620125,75.122787 
	C76.369926,74.406006 72.978592,74.301033 69.640450,74.021500 
	C67.542274,73.845802 64.742157,73.427795 65.164642,76.623848 
	C65.353180,78.050087 67.655457,79.196915 68.886353,80.978745 
	C68.982315,82.763702 69.078285,84.548668 69.174248,86.333626 
	C70.830887,85.964928 73.016861,86.126991 74.031769,85.114815 
	C76.022072,83.129890 77.360146,80.490967 79.600235,77.946846 
M68.012810,67.429703 
	C68.733025,66.968620 69.453239,66.507545 70.173454,66.046463 
	C69.989601,65.600281 69.805748,65.154106 69.621895,64.707924 
	C65.725105,65.937515 61.828312,67.167114 57.931519,68.396713 
	C58.147659,69.143150 58.363796,69.889595 58.579937,70.636040 
	C61.491413,69.695625 64.402885,68.755211 68.012810,67.429703 
M98.742996,90.996368 
	C97.292946,91.406700 95.842896,91.817039 94.392845,92.227379 
	C94.625549,92.752762 94.858253,93.278145 95.090958,93.803535 
	C96.513359,92.892006 97.935760,91.980484 98.742996,90.996368 
M115.650192,151.538544 
	C115.611252,152.427567 115.572311,153.316605 115.533371,154.205627 
	C116.163223,154.046890 116.793076,153.888168 117.422928,153.729446 
	C116.983139,152.869598 116.543350,152.009750 115.650192,151.538544 
M113.868988,156.578796 
	C113.847794,156.834198 113.826591,157.089584 113.805389,157.345001 
	C113.950050,157.348679 114.094711,157.352356 114.239372,157.356018 
	C114.229584,157.099640 114.219795,156.843277 113.868988,156.578796 
M73.906555,106.629974 
	C73.906555,106.629974 74.167374,106.446060 74.167374,106.446060 
	C74.167374,106.446060 73.827011,106.470879 73.906555,106.629974 
M118.642899,144.904938 
	C118.642899,144.904938 118.366791,144.985413 118.366791,144.985413 
	C118.366791,144.985413 118.640923,145.074860 118.642899,144.904938 
M77.107498,106.364967 
	C77.107498,106.364967 76.827797,106.564217 76.827797,106.564217 
	C76.827797,106.564217 77.195526,106.535606 77.107498,106.364967 
z"/>
<path fill="#41342C" opacity="1.000000" stroke="none" 
	d="
M76.787697,11.285032 
	C77.016655,10.988175 77.510803,11.009726 77.782562,11.370488 
	C80.413643,14.158422 81.865402,18.013252 86.630692,16.294380 
	C88.720863,15.540441 96.933144,20.696342 97.611969,22.918030 
	C95.284683,22.616739 93.339020,22.313498 91.393364,22.010256 
	C91.319290,22.561125 91.245224,23.111994 91.171150,23.662863 
	C97.454575,24.470324 103.738007,25.277782 110.310509,26.292700 
	C111.977165,27.185852 113.354736,27.871546 114.732315,28.557240 
	C113.437744,30.065378 112.143166,31.573517 110.494835,33.050896 
	C103.112518,32.653004 96.083954,32.285870 88.937393,31.582008 
	C83.097481,27.278965 76.739204,26.500036 69.896194,27.697287 
	C69.603714,26.521099 69.355354,25.522314 69.106987,24.523529 
	C68.508415,24.037083 67.909843,23.550634 67.311272,23.064188 
	C65.708725,25.377016 64.155426,27.725960 62.492119,29.994228 
	C59.986954,33.410538 56.793976,33.429718 53.183620,31.894949 
	C49.839672,30.473427 46.398361,29.280947 42.999924,27.987606 
	C44.977760,24.576557 46.955597,21.165508 49.230965,17.382200 
	C49.707386,17.002962 49.886280,16.995985 50.499325,17.014904 
	C54.253384,16.681675 57.573288,16.322548 60.893196,15.963423 
	C64.558746,21.043154 69.746254,17.823753 74.199417,18.016172 
	C74.891891,18.046095 75.767708,13.832928 76.787697,11.285032 
M88.531441,21.503477 
	C88.531441,21.503477 88.486809,21.521193 88.531441,21.503477 
M70.531281,22.506424 
	C70.531281,22.506424 70.485931,22.525499 70.531281,22.506424 
z"/>
<path fill="#342520" opacity="1.000000" stroke="none" 
	d="
M42.794785,28.182419 
	C46.398361,29.280947 49.839672,30.473427 53.183620,31.894949 
	C56.793976,33.429718 59.986954,33.410538 62.492119,29.994228 
	C64.155426,27.725960 65.708725,25.377016 67.311272,23.064188 
	C67.909843,23.550634 68.508415,24.037083 69.106987,24.523529 
	C69.355354,25.522314 69.603714,26.521099 69.896194,27.697287 
	C76.739204,26.500036 83.097481,27.278965 88.647430,31.652264 
	C87.986336,32.372231 87.497215,32.685211 86.732887,33.156227 
	C85.623367,34.251751 84.789055,35.189236 83.954735,36.126724 
	C76.863564,39.011234 69.772385,41.895744 62.098312,44.881069 
	C60.951946,45.114147 60.388485,45.246407 59.452370,45.265728 
	C58.397514,44.442951 57.715313,43.733120 57.226246,42.885101 
	C57.663231,42.538433 57.862789,42.293816 58.097519,41.969391 
	C58.176971,41.925720 58.183174,41.702850 58.183174,41.702850 
	C58.183174,41.702850 57.986954,41.982220 57.790569,42.116196 
	C57.348232,42.455070 57.142757,42.694687 56.713104,43.118011 
	C55.636169,42.904697 54.329182,42.726311 54.112217,42.142693 
	C53.625534,40.833572 53.680534,39.323071 53.456188,37.387207 
	C50.430984,40.243042 54.496521,45.314980 49.013268,45.993340 
	C49.005581,45.995308 48.998714,45.981522 48.893768,45.864807 
	C48.469318,45.600616 48.208561,45.684303 47.746956,45.996742 
	C47.314320,45.991203 47.141277,45.988075 46.962837,45.632812 
	C45.296284,43.858936 43.635132,42.437199 41.973984,41.015461 
	C41.973984,41.015461 41.989944,40.994400 41.785126,40.785851 
	C41.012016,40.386398 40.443726,40.195496 39.875435,40.004593 
	C39.629078,39.865356 39.414803,39.687473 39.137440,38.902420 
	C39.358250,36.549957 39.674236,34.766022 39.990219,32.982086 
	C39.990219,32.982086 40.004341,33.000050 40.209190,32.803764 
	C40.610439,32.065975 40.806843,31.524469 41.003246,30.982962 
	C41.003246,30.982962 41.003040,31.002409 41.196724,30.861198 
	C41.644363,30.499273 41.850273,30.240343 42.008129,29.943195 
	C42.201969,29.421207 42.395809,28.899220 42.794785,28.182419 
z"/>
<path fill="#2F1D1B" opacity="1.000000" stroke="none" 
	d="
M46.968239,45.984947 
	C47.141277,45.988075 47.314320,45.991203 47.994987,45.994019 
	C48.502609,45.993706 48.998714,45.981522 48.998714,45.981522 
	C48.998714,45.981522 49.005581,45.995308 49.006317,46.370148 
	C49.004559,47.498268 49.002060,48.251541 48.727081,49.239471 
	C43.314083,51.202099 45.471046,55.560093 45.016571,58.988518 
	C45.004883,58.995903 44.980804,59.009514 44.754364,58.706703 
	C43.912739,55.618706 43.297562,52.833515 42.682381,50.048321 
	C42.106327,50.157692 41.530277,50.267059 40.954224,50.376427 
	C41.661240,53.889751 42.368259,57.403080 43.036575,60.957424 
	C42.997871,60.998444 42.919418,61.079472 42.919418,61.079472 
	C41.663593,59.933048 39.366615,58.809772 39.340515,57.636005 
	C39.249863,53.559444 39.947338,49.465359 41.028397,45.184708 
	C43.463921,45.322632 45.216080,45.653790 46.968239,45.984947 
z"/>
<path fill="#2F1D1B" opacity="1.000000" stroke="none" 
	d="
M52.131798,60.725449 
	C53.295498,64.908737 54.459202,69.092026 55.713642,73.640472 
	C55.161491,73.518021 54.118401,73.145058 53.940544,72.524231 
	C52.769794,68.437569 50.924206,65.449013 46.006447,65.241943 
	C44.957741,65.197784 43.999138,63.013695 42.959221,61.447472 
	C42.919418,61.079472 42.997871,60.998444 43.326904,60.903946 
	C44.097557,60.209473 44.539181,59.609493 44.980804,59.009514 
	C44.980804,59.009514 45.004883,58.995903 45.297760,59.170609 
	C46.058876,60.547508 46.527119,61.749699 46.911755,63.092049 
	C47.197414,63.151699 47.566681,63.071182 48.279850,62.986191 
	C49.082272,62.987720 49.540787,62.993729 50.238487,63.155193 
	C51.029045,62.448914 51.580421,61.587181 52.131798,60.725449 
z"/>
<path fill="#796256" opacity="1.000000" stroke="none" 
	d="
M60.746655,15.681801 
	C57.573288,16.322548 54.253384,16.681675 50.584652,16.778326 
	C50.296795,16.359554 50.357758,16.203259 50.418716,16.046963 
	C51.520256,14.914068 52.621796,13.781173 54.200485,12.334544 
	C55.125027,11.995356 55.572414,11.969901 56.019802,11.944447 
	C57.546574,13.096357 59.073341,14.248267 60.746655,15.681801 
z"/>
<path fill="#281413" opacity="1.000000" stroke="none" 
	d="
M46.962837,45.632812 
	C45.216080,45.653790 43.463921,45.322632 41.313713,44.987305 
	C41.227104,43.885010 41.538540,42.786877 41.911980,41.352104 
	C43.635132,42.437199 45.296284,43.858936 46.962837,45.632812 
z"/>
<path fill="#33211E" opacity="1.000000" stroke="none" 
	d="
M56.178513,11.662724 
	C55.572414,11.969901 55.125027,11.995356 54.345596,12.074064 
	C55.451630,10.458856 56.889702,8.790392 58.667664,7.067232 
	C58.117447,8.468691 57.227333,9.924847 56.178513,11.662724 
z"/>
<path fill="#33211E" opacity="1.000000" stroke="none" 
	d="
M64.673019,3.058034 
	C63.257614,4.331558 61.499119,5.652488 59.375336,6.990607 
	C60.783340,5.707011 62.556637,4.406225 64.673019,3.058034 
z"/>
<path fill="#281413" opacity="1.000000" stroke="none" 
	d="
M39.697762,33.178574 
	C39.674236,34.766022 39.358250,36.549957 39.017723,38.730194 
	C39.130550,37.209351 39.267925,35.292206 39.697762,33.178574 
z"/>
<path fill="#C59F8D" opacity="1.000000" stroke="none" 
	d="
M61.223808,113.888641 
	C61.984390,114.633377 62.473549,115.440460 62.972847,116.621048 
	C62.089222,116.624535 61.195461,116.254517 59.957787,115.732574 
	C60.060043,115.037430 60.506218,114.494209 61.223808,113.888641 
z"/>
<path fill="#C59F8D" opacity="1.000000" stroke="none" 
	d="
M57.861633,117.899330 
	C57.644890,117.405037 57.729046,117.016884 57.883995,116.339020 
	C58.331703,115.986977 58.708611,115.924637 59.350803,115.743393 
	C59.131565,116.418144 58.647045,117.211800 57.861633,117.899330 
z"/>
<path fill="#2F1D1B" opacity="1.000000" stroke="none" 
	d="
M57.083702,77.117126 
	C57.497795,77.568542 57.929596,78.391197 58.407410,79.568222 
	C58.002750,79.111176 57.552074,78.299767 57.083702,77.117126 
z"/>
<path fill="#281413" opacity="1.000000" stroke="none" 
	d="
M40.792839,31.184666 
	C40.806843,31.524469 40.610439,32.065975 40.197941,32.804192 
	C40.182037,32.462719 40.382233,31.924543 40.792839,31.184666 
z"/>
<path fill="#281413" opacity="1.000000" stroke="none" 
	d="
M40.096806,40.211754 
	C40.443726,40.195496 41.012016,40.386398 41.787926,40.797985 
	C41.436424,40.818748 40.877300,40.618832 40.096806,40.211754 
z"/>
<path fill="#33211E" opacity="1.000000" stroke="none" 
	d="
M50.141701,16.154217 
	C50.357758,16.203259 50.296795,16.359554 50.150501,16.752430 
	C49.886280,16.995985 49.707386,17.002962 49.260323,17.027039 
	C49.282997,16.783251 49.573841,16.522362 50.141701,16.154217 
z"/>
<path fill="#281413" opacity="1.000000" stroke="none" 
	d="
M41.808800,30.091873 
	C41.850273,30.240343 41.644363,30.499273 41.187538,30.864410 
	C41.150215,30.717995 41.358482,30.461899 41.808800,30.091873 
z"/>
<path fill="#413829" opacity="1.000000" stroke="none" 
	d="
M138.063812,92.838875 
	C132.562943,92.670853 127.327103,92.245277 121.591255,91.438522 
	C120.031197,89.927452 118.971130,88.797577 118.244041,88.022598 
	C118.983253,85.821358 119.590530,84.012993 120.197807,82.204636 
	C122.482330,81.177536 125.386932,73.686134 123.924850,71.381523 
	C122.092896,68.493912 119.432991,66.255432 115.557220,67.069443 
	C114.737305,67.241646 113.734467,68.005447 113.393715,68.758224 
	C111.245300,73.504410 109.298004,78.341202 107.193626,83.108055 
	C106.671432,84.290901 105.814865,85.326134 104.382439,87.574181 
	C103.149536,82.017334 102.205894,77.916359 101.335037,73.799988 
	C100.285156,68.837456 97.772812,65.252045 92.460373,64.364494 
	C89.495247,63.869102 88.416451,62.254272 88.294121,59.259716 
	C88.057335,53.463192 87.424561,47.682842 87.442017,41.447906 
	C91.029251,41.317169 94.298347,42.420555 97.199303,41.800770 
	C105.193649,40.092796 112.443359,40.802620 118.963005,46.362907 
	C118.966850,47.120689 118.963982,47.553875 118.977509,47.999123 
	C118.993896,48.011189 119.000275,47.970997 118.805176,48.100868 
	C118.367043,48.433632 118.174873,48.676735 117.970802,49.281494 
	C117.230766,50.848930 116.553505,52.094910 115.876244,53.340893 
	C118.830063,52.852772 121.389557,51.758305 123.367157,50.006809 
	C125.517883,48.101974 126.794159,48.452568 128.809769,50.186119 
	C131.400208,52.414036 134.202148,54.770988 137.335556,55.918724 
	C145.144958,58.779240 147.752914,61.807449 147.981323,70.053452 
	C144.763824,77.562744 141.546326,85.072037 138.063812,92.838875 
z"/>
<path fill="#41342C" opacity="1.000000" stroke="none" 
	d="
M150.220581,21.957563 
	C152.394943,24.779982 154.569321,27.602400 157.097168,30.933048 
	C157.972107,31.632317 158.493530,31.823355 159.014969,32.014393 
	C159.014969,32.014393 159.000763,31.998262 159.231964,32.217648 
	C160.638077,32.956486 161.812988,33.475945 162.987915,33.995403 
	C162.987915,33.995403 162.998611,34.000725 162.790741,34.122055 
	C162.325623,34.446156 162.129562,34.696812 161.994705,34.995350 
	C161.994705,34.995350 162.000000,34.999695 161.647400,34.977272 
	C159.991425,34.868217 158.688065,34.781578 157.384689,34.694939 
	C157.218796,35.061020 157.052902,35.427105 156.886993,35.793186 
	C157.926056,36.898052 158.965118,38.002914 160.004150,39.107780 
	C161.134003,41.911255 162.328979,44.690777 163.371460,47.526367 
	C164.102051,49.513653 163.961761,50.886848 161.098114,48.930069 
	C158.921219,46.887054 156.959122,45.429066 154.765015,43.727097 
	C152.030426,42.085941 149.527832,40.688766 146.079651,38.763676 
	C147.663086,42.628235 148.763580,45.314125 149.815994,48.293289 
	C149.182770,49.044411 148.597610,49.502262 148.006302,49.981094 
	C148.000137,50.002083 148.033539,49.973732 147.927704,49.626091 
	C142.561951,47.826042 137.302002,46.373634 131.785477,44.681900 
	C129.477081,42.661488 127.425285,40.880394 125.311333,39.045349 
	C123.885796,39.832371 121.968216,40.891045 119.910538,41.755798 
	C119.566032,41.308937 119.316803,41.113007 119.009132,40.983833 
	C118.995506,40.993580 119.028137,40.994862 118.989120,40.690956 
	C118.641159,39.865311 118.332214,39.343575 117.881714,38.594822 
	C117.203888,37.907547 116.667610,37.447289 116.087158,36.749275 
	C116.042984,36.511524 115.989288,36.031273 116.157974,35.741920 
	C120.478416,31.126637 120.573692,29.139582 116.528671,24.940277 
	C114.084137,22.402510 117.038956,22.130327 118.333328,21.000135 
	C119.111107,21.000130 119.555557,21.000141 120.274109,21.223732 
	C125.227150,24.799843 129.906082,28.152374 135.422501,32.104977 
	C136.529205,32.104977 139.053940,32.104977 142.660339,32.104977 
	C140.865494,30.179247 139.765350,28.998888 138.784042,27.946012 
	C139.605148,26.899246 140.297546,26.016573 141.371323,25.063160 
	C144.575333,23.980799 147.397949,22.969181 150.220581,21.957563 
z"/>
<path fill="#31261C" opacity="1.000000" stroke="none" 
	d="
M120.050629,41.949722 
	C121.968216,40.891045 123.885796,39.832371 125.311333,39.045349 
	C127.425285,40.880394 129.477081,42.661488 131.734680,44.947216 
	C137.304825,46.959145 142.669189,48.466438 148.033539,49.973732 
	C148.033539,49.973732 148.000137,50.002083 148.163391,50.270786 
	C149.892609,51.706875 151.458557,52.874260 153.024506,54.041649 
	C151.513321,59.211987 150.002121,64.382332 148.236130,69.803055 
	C147.752914,61.807449 145.144958,58.779240 137.335556,55.918724 
	C134.202148,54.770988 131.400208,52.414036 128.809769,50.186119 
	C126.794159,48.452568 125.517883,48.101974 123.367157,50.006809 
	C121.389557,51.758305 118.830063,52.852772 115.876244,53.340893 
	C116.553505,52.094910 117.230766,50.848930 118.162109,49.149158 
	C118.656380,48.490604 118.851082,48.249146 119.000275,47.970997 
	C119.000275,47.970997 118.993896,48.011189 119.314384,47.944832 
	C120.789497,46.966293 121.944115,46.054111 122.595573,45.539440 
	C121.548332,44.062279 120.799477,43.006001 120.050629,41.949722 
z"/>
<path fill="#F1DEC6" opacity="1.000000" stroke="none" 
	d="
M139.062866,111.659256 
	C139.392853,111.150215 139.722839,110.641174 140.281006,110.057907 
	C142.801376,119.739761 145.093552,129.495819 147.285843,139.583862 
	C145.482437,140.750916 143.778915,141.585999 141.838318,141.900085 
	C139.529968,136.518097 133.790161,132.051239 141.957825,125.763878 
	C138.847961,126.117439 137.738037,126.309494 136.622360,126.352692 
	C135.411087,126.399590 134.194473,126.307983 132.980179,126.276772 
	C133.358902,125.002090 133.649994,123.693077 134.133438,122.459435 
	C135.381241,119.275406 136.714050,116.124695 138.012894,112.960670 
	C138.012894,112.960670 138.010178,113.009422 138.271820,112.895973 
	C138.709930,112.408096 138.886398,112.033676 139.062866,111.659256 
z"/>
<path fill="#33241E" opacity="1.000000" stroke="none" 
	d="
M149.864075,48.000015 
	C148.763580,45.314125 147.663086,42.628235 146.079651,38.763676 
	C149.527832,40.688766 152.030426,42.085941 154.918365,44.051846 
	C156.155487,47.441322 157.007263,50.262066 157.859039,53.082809 
	C157.859024,53.082813 157.471375,53.069881 157.069794,52.762844 
	C154.400177,50.970543 152.132126,49.485279 149.864075,48.000015 
z"/>
<path fill="#766156" opacity="1.000000" stroke="none" 
	d="
M150.162811,21.669750 
	C147.397949,22.969181 144.575333,23.980799 140.977676,25.075321 
	C137.213989,25.160927 134.225327,25.163631 131.562164,25.123413 
	C132.921768,24.685400 133.955872,24.290308 135.334076,23.802528 
	C139.840317,21.968264 144.002457,20.226690 148.384476,18.706823 
	C149.057571,19.358295 149.510788,19.788061 149.963989,20.217827 
	C150.011002,20.605864 150.058029,20.993900 150.162811,21.669750 
z"/>
<path fill="#372822" opacity="1.000000" stroke="none" 
	d="
M141.696640,11.054405 
	C142.485199,11.631751 142.960617,12.247060 143.739166,12.937213 
	C144.600098,13.495568 145.157883,13.979078 145.860168,15.036896 
	C146.016281,16.053061 146.027908,16.494919 145.609863,16.954346 
	C142.455826,17.311844 139.731461,17.651772 136.870300,17.797716 
	C136.526611,17.359779 136.284546,17.157976 136.006897,16.750599 
	C136.006454,16.502878 136.008728,16.007441 136.008728,16.007439 
	C137.081955,14.864343 138.155167,13.721248 139.145111,12.304075 
	C139.835709,11.717455 140.609604,11.404912 141.696640,11.054405 
z"/>
<path fill="#2A1614" opacity="1.000000" stroke="none" 
	d="
M157.934052,53.366726 
	C157.007263,50.262066 156.155487,47.441322 155.150360,44.295826 
	C156.959122,45.429066 158.921219,46.887054 160.943314,48.689461 
	C160.388397,49.578289 159.276199,50.106522 159.257843,50.670349 
	C159.214127,52.013878 159.687088,53.374218 160.217346,56.090363 
	C158.869415,54.601158 158.439240,54.125900 157.934052,53.366726 
z"/>
<path fill="#2A1614" opacity="1.000000" stroke="none" 
	d="
M149.815994,48.293285 
	C152.132126,49.485279 154.400177,50.970543 156.876617,52.745781 
	C155.941589,53.266300 154.798172,53.496845 153.339630,53.884518 
	C151.458557,52.874260 149.892609,51.706875 148.169556,50.249802 
	C148.597610,49.502262 149.182770,49.044411 149.815994,48.293285 
z"/>
<path fill="#2C1B17" opacity="1.000000" stroke="none" 
	d="
M160.054993,38.777050 
	C158.965118,38.002914 157.926056,36.898052 156.886993,35.793186 
	C157.052902,35.427105 157.218796,35.061020 157.384689,34.694939 
	C158.688065,34.781578 159.991425,34.868217 161.645004,34.973373 
	C161.365402,36.143368 160.735596,37.294842 160.054993,38.777050 
z"/>
<path fill="#2C1B17" opacity="1.000000" stroke="none" 
	d="
M163.274780,33.917946 
	C161.812988,33.475945 160.638077,32.956486 159.221375,32.215923 
	C160.363220,32.966896 163.373962,29.899446 163.274780,33.917946 
z"/>
<path fill="#2D1E1C" opacity="1.000000" stroke="none" 
	d="
M149.932465,19.882504 
	C149.510788,19.788061 149.057571,19.358295 148.338135,18.475721 
	C148.005356,17.711231 147.955429,17.396914 147.950195,17.050919 
	C147.978287,17.021877 148.034119,16.963449 148.034119,16.963449 
	C148.656387,17.824694 149.278671,18.685938 149.932465,19.882504 
z"/>
<path fill="#2D1E1C" opacity="1.000000" stroke="none" 
	d="
M146.039520,16.936775 
	C146.027908,16.494919 146.016281,16.053061 146.003830,15.278650 
	C146.622604,15.422027 147.242233,15.897957 147.947983,16.668667 
	C148.034119,16.963449 147.978287,17.021877 147.637207,17.030380 
	C146.877258,17.004848 146.458389,16.970812 146.039520,16.936775 
z"/>
<path fill="#2C1B17" opacity="1.000000" stroke="none" 
	d="
M158.820312,31.808548 
	C158.493530,31.823355 157.972107,31.632317 157.252319,31.245502 
	C157.577866,31.234051 158.101761,31.418377 158.820312,31.808548 
z"/>
<path fill="#2C1B17" opacity="1.000000" stroke="none" 
	d="
M162.200500,34.871002 
	C162.129562,34.696812 162.325623,34.446156 162.788879,34.119286 
	C162.859573,34.293354 162.663391,34.543842 162.200500,34.871002 
z"/>
<path fill="#343132" opacity="1.000000" stroke="none" 
	d="
M103.621506,147.057846 
	C103.671059,147.478973 103.720619,147.900101 103.380974,148.823517 
	C102.775955,151.656219 102.560135,153.986603 102.344315,156.317001 
	C102.344322,156.317001 102.344513,156.361877 102.066017,156.234039 
	C101.587265,156.062088 101.387009,156.017975 100.804733,155.917572 
	C99.920486,156.410767 99.418243,156.960251 98.946045,157.520752 
	C98.976097,157.531784 98.923195,157.529663 98.923195,157.529663 
	C98.509682,157.646667 98.096169,157.763672 97.191574,157.576996 
	C94.542885,156.418793 92.385262,155.564270 90.227646,154.709732 
	C88.092339,156.510147 85.957039,158.310562 83.175980,160.089539 
	C81.030876,159.692368 79.531532,159.316635 78.032196,158.940887 
	C71.033440,164.678879 60.139343,164.305695 55.539112,174.228912 
	C53.690990,178.215530 49.152813,180.955093 45.499344,184.364212 
	C49.192776,173.314056 54.845348,163.089966 62.950191,153.636688 
	C63.569057,152.857086 63.821175,152.501770 64.073288,152.146454 
	C68.115166,150.853561 72.157036,149.560669 76.733032,148.451248 
	C77.913818,148.115601 78.560486,147.596481 79.207153,147.077377 
	C79.607071,147.052322 80.006989,147.027267 81.095932,146.951416 
	C82.858505,146.897598 83.932037,146.894562 85.405510,146.935791 
	C90.070290,145.036789 90.856155,142.845322 88.424644,139.249237 
	C87.344650,137.651978 86.017014,136.222168 84.801788,134.716370 
	C84.238678,133.085556 83.675575,131.454742 83.068359,129.450806 
	C87.445038,127.382660 91.865814,125.687653 96.696739,124.320572 
	C99.620834,128.344925 102.565926,131.863251 102.078171,137.238739 
	C102.565414,140.815811 103.093460,143.936829 103.621506,147.057846 
z"/>
<path fill="#AB9A88" opacity="1.000000" stroke="none" 
	d="
M137.699554,113.087425 
	C136.714050,116.124695 135.381241,119.275406 134.133438,122.459435 
	C133.649994,123.693077 133.358902,125.002090 132.980179,126.276772 
	C134.194473,126.307983 135.411087,126.399590 136.622360,126.352692 
	C137.738037,126.309494 138.847961,126.117439 141.957825,125.763878 
	C133.790161,132.051239 139.529968,136.518097 141.802124,141.685120 
	C140.205261,143.943176 138.407547,145.895157 136.295593,147.513580 
	C135.585831,145.124481 135.190308,143.068924 134.794785,141.013367 
	C133.595459,136.182907 133.595459,136.182907 127.670746,137.808289 
	C128.939407,134.449203 130.021484,131.584152 131.103577,128.719086 
	C130.652695,128.407532 130.201813,128.095978 129.750946,127.784416 
	C128.390396,128.559052 127.084015,129.460922 125.653061,130.070206 
	C124.387268,130.609161 122.982750,130.822296 121.639481,131.179291 
	C121.295624,130.689484 120.951767,130.199677 120.607910,129.709869 
	C126.200684,124.211304 131.793457,118.712746 137.699554,113.087425 
z"/>
<path fill="#B2A3A8" opacity="1.000000" stroke="none" 
	d="
M90.184212,155.106445 
	C92.385262,155.564270 94.542885,156.418793 96.866760,157.576050 
	C93.947853,163.432846 90.862686,168.986923 87.777519,174.541000 
	C87.275246,174.318970 86.772972,174.096954 86.270699,173.874924 
	C86.228111,167.511322 87.171913,161.325134 90.184212,155.106445 
z"/>
<path fill="#F6E2C9" opacity="1.000000" stroke="none" 
	d="
M134.523926,141.085144 
	C135.190308,143.068924 135.585831,145.124481 135.962708,147.586853 
	C132.507385,150.218658 129.070740,152.443665 125.334465,154.850815 
	C124.843109,152.732315 124.651367,150.431671 124.377045,147.140030 
	C126.909920,148.337585 128.285675,148.988037 130.296341,149.938690 
	C129.776031,147.004501 129.331421,144.497238 128.852219,141.794785 
	C130.464447,141.604370 132.358765,141.380646 134.523926,141.085144 
z"/>
<path fill="#A79A9E" opacity="1.000000" stroke="none" 
	d="
M78.075165,159.355835 
	C79.531532,159.316635 81.030876,159.692368 82.872101,160.268738 
	C80.769279,165.313126 78.324577,170.156876 75.879875,175.000610 
	C75.558151,174.836487 75.236427,174.672379 74.914703,174.508255 
	C75.982513,169.595764 77.050331,164.683273 78.075165,159.355835 
z"/>
<path fill="#B6ABB2" opacity="1.000000" stroke="none" 
	d="
M98.735153,179.822021 
	C100.923920,177.137650 102.857605,174.708511 104.791290,172.279373 
	C105.521812,172.942337 106.252335,173.605301 106.982857,174.268265 
	C103.945770,178.220749 100.908684,182.173218 97.871590,186.125702 
	C97.212181,185.735199 96.552773,185.344696 95.893364,184.954208 
	C96.755600,183.328552 97.617828,181.702896 98.735153,179.822021 
z"/>
<path fill="#E0E3EB" opacity="1.000000" stroke="none" 
	d="
M168.986862,185.014893 
	C167.413422,184.213058 165.839966,183.411224 164.266525,182.609406 
	C164.667908,182.046844 165.069275,181.484299 165.470642,180.921738 
	C166.606049,182.050934 167.741440,183.180145 168.938492,184.654663 
	C169.000137,185.000000 168.986862,185.014893 168.986862,185.014893 
z"/>
<path fill="#4E423C" opacity="1.000000" stroke="none" 
	d="
M99.189575,157.367523 
	C98.923195,157.529663 98.976097,157.531784 99.332062,157.717270 
	C100.187599,157.259781 100.687172,156.616821 101.186745,155.973846 
	C101.387009,156.017975 101.587265,156.062088 102.057861,156.254944 
	C101.780991,157.178177 101.233780,157.952621 100.758919,159.066833 
	C100.372833,158.672836 99.914391,157.939102 99.189575,157.367523 
z"/>
<path fill="#E0E3EB" opacity="1.000000" stroke="none" 
	d="
M160.102066,179.488159 
	C160.187225,179.187042 160.361542,179.149689 160.799316,179.064941 
	C161.394501,179.511566 161.726227,180.005600 162.057968,180.499619 
	C161.435730,180.250381 160.813477,180.001144 160.102066,179.488159 
z"/>
<path fill="#E0E3EB" opacity="1.000000" stroke="none" 
	d="
M169.007233,184.992889 
	C169.805450,185.233231 170.596573,185.480682 171.387680,185.728149 
	C171.263565,186.020035 171.139465,186.311905 171.015350,186.603790 
	C170.395279,186.264938 169.775223,185.926086 169.071014,185.301056 
	C168.986862,185.014893 169.000137,185.000000 169.007233,184.992889 
z"/>
<path fill="#C59F8D" opacity="1.000000" stroke="none" 
	d="
M44.937744,187.664764 
	C44.755905,187.356094 44.688793,186.724548 44.890350,186.036285 
	C45.123505,186.433685 45.087986,186.887802 44.937744,187.664764 
z"/>
<path fill="#B2A3A8" opacity="1.000000" stroke="none" 
	d="
M96.935867,166.409134 
	C96.806305,166.084839 96.879677,165.768448 96.953033,165.452042 
	C97.014961,165.773697 97.076881,166.095367 96.935867,166.409134 
z"/>
<path fill="#E0E3EB" opacity="1.000000" stroke="none" 
	d="
M154.345490,180.390472 
	C154.574677,179.927521 154.997772,179.574371 155.706970,179.205246 
	C155.508499,179.626266 155.023956,180.063278 154.345490,180.390472 
z"/>
<path fill="#F6E2C9" opacity="1.000000" stroke="none" 
	d="
M118.255119,158.855164 
	C118.527168,158.520264 119.057404,158.083725 119.781250,157.801102 
	C119.487679,158.221176 119.000488,158.487350 118.255119,158.855164 
z"/>
<path fill="#F6E2C9" opacity="1.000000" stroke="none" 
	d="
M111.367935,160.078156 
	C111.574211,159.941940 112.102180,159.782181 112.802673,159.785568 
	C112.546669,159.983994 112.118149,160.019287 111.367935,160.078156 
z"/>
<path fill="#E0E3EB" opacity="1.000000" stroke="none" 
	d="
M144.288452,186.858490 
	C144.166916,186.675888 144.300156,186.463104 144.731369,186.285187 
	C144.785217,186.446365 144.623184,186.615784 144.288452,186.858490 
z"/>
<path fill="#F6E2C9" opacity="1.000000" stroke="none" 
	d="
M124.133194,156.150574 
	C124.040459,156.050842 124.442268,156.013855 124.641632,156.001328 
	C124.840996,155.988800 124.596786,156.286407 124.596786,156.286407 
	C124.596786,156.286407 124.225937,156.250305 124.133194,156.150574 
z"/>
<path fill="#F6E2C9" opacity="1.000000" stroke="none" 
	d="
M121.245651,156.907318 
	C121.189903,156.741852 121.393494,156.500870 121.875900,156.209473 
	C121.910706,156.364502 121.694130,156.588745 121.245651,156.907318 
z"/>
<path fill="#C59F8D" opacity="1.000000" stroke="none" 
	d="
M84.341736,134.774658 
	C86.017014,136.222168 87.344650,137.651978 88.424644,139.249237 
	C90.856155,142.845322 90.070290,145.036789 85.313034,146.628082 
	C83.215492,144.792435 81.610367,143.308701 80.005234,141.824982 
	C80.005234,141.824982 79.966995,141.453995 79.856277,140.977814 
	C78.819595,139.669266 77.893631,138.836884 76.967651,138.004501 
	C77.443039,137.343964 77.918419,136.683426 78.964157,136.129517 
	C80.368027,135.822342 81.201523,135.408539 82.035019,134.994736 
	C82.650574,134.940811 83.266136,134.886887 84.341736,134.774658 
z"/>
<path fill="#C7A493" opacity="1.000000" stroke="none" 
	d="
M74.879059,120.330460 
	C76.432648,118.739426 77.986221,117.148384 80.035721,115.338531 
	C80.531631,115.119705 81.018829,115.130768 81.253891,115.376274 
	C83.813728,119.060135 86.979904,117.311157 89.914734,116.988457 
	C89.362877,117.836655 88.811020,118.684853 87.796494,119.851669 
	C87.326889,120.858788 87.319946,121.547264 87.313004,122.235748 
	C87.313004,122.235748 87.206558,122.618523 86.729225,122.804688 
	C85.172653,122.991020 84.093422,122.991196 82.725266,123.024857 
	C81.963318,123.363899 81.490295,123.669449 81.019501,123.976440 
	C81.021729,123.977890 81.028183,123.959534 80.706940,124.011032 
	C79.938622,124.703598 79.491539,125.344666 78.749802,125.853302 
	C77.636688,125.480682 76.818230,125.240494 75.999763,125.000305 
	C75.992973,124.832207 75.986176,124.664101 75.843010,123.944519 
	C75.425751,122.567657 75.144852,121.742279 74.864273,120.770203 
	C74.864601,120.623505 74.879059,120.330452 74.879059,120.330460 
z"/>
<path fill="#C59F8D" opacity="1.000000" stroke="none" 
	d="
M51.381077,126.063812 
	C51.491287,124.453239 51.921799,122.904457 52.660973,121.173256 
	C55.342499,121.194923 57.715363,121.399010 61.142864,121.693817 
	C60.980442,125.185204 60.774967,129.601898 60.569496,134.018600 
	C59.282146,129.351257 55.657192,127.560524 51.381077,126.063812 
M55.416843,124.871597 
	C55.164318,124.850601 54.911793,124.829605 54.659267,124.808601 
	C54.655602,124.951645 54.651936,125.094688 54.648270,125.237732 
	C54.901749,125.228088 55.155228,125.218445 55.416843,124.871597 
z"/>
<path fill="#BA9584" opacity="1.000000" stroke="none" 
	d="
M74.896454,120.249512 
	C74.879059,120.330452 74.864601,120.623505 74.603416,120.848564 
	C73.911118,121.393738 73.480003,121.713852 73.048889,122.033958 
	C72.291100,124.050110 71.663506,126.129150 70.730515,128.060669 
	C70.090729,129.385162 69.026199,130.504501 68.151535,131.715546 
	C66.960938,130.441101 65.615128,129.273529 64.636948,127.852814 
	C64.033615,126.976524 63.990795,125.714317 63.688683,124.597115 
	C65.403465,124.728607 67.338203,125.471710 68.380501,124.809708 
	C69.752151,123.938515 70.422058,121.962456 71.202713,119.895607 
	C71.335724,118.513168 71.659706,117.696594 71.983688,116.880020 
	C72.613037,117.413689 73.242386,117.947357 74.066193,118.983276 
	C74.429703,119.763046 74.671860,119.941231 74.987144,120.020073 
	C74.987144,120.020073 74.913857,120.168564 74.896454,120.249512 
z"/>
<path fill="#F3DFC8" opacity="1.000000" stroke="none" 
	d="
M71.992203,116.468620 
	C71.659706,117.696594 71.335724,118.513168 70.993576,119.660362 
	C70.807320,119.969925 70.639214,119.948868 70.227180,119.855148 
	C70.224709,116.134087 70.466171,112.485680 70.707634,108.837280 
	C71.138664,108.861519 71.569687,108.885757 72.000717,108.910004 
	C72.000717,111.292404 72.000717,113.674812 71.992203,116.468620 
z"/>
<path fill="#BD9889" opacity="1.000000" stroke="none" 
	d="
M79.820000,142.063843 
	C81.610367,143.308701 83.215492,144.792435 84.913101,146.583847 
	C83.932037,146.894562 82.858505,146.897598 81.383698,146.860382 
	C80.533211,145.314331 80.083992,143.808517 79.820000,142.063843 
z"/>
<path fill="#B58F82" opacity="1.000000" stroke="none" 
	d="
M76.035385,125.298599 
	C76.818230,125.240494 77.636688,125.480682 78.995941,125.742836 
	C79.991814,125.473434 80.446899,125.182076 80.932571,125.237518 
	C81.006256,126.045921 81.049355,126.507507 81.092453,126.969101 
	C80.585587,127.324120 80.078720,127.679131 79.068314,127.897552 
	C78.023689,127.553436 77.482613,127.345901 76.941528,127.138374 
	C76.651352,126.624542 76.361176,126.110718 76.035385,125.298599 
z"/>
<path fill="#BD9889" opacity="1.000000" stroke="none" 
	d="
M81.885391,134.745850 
	C81.201523,135.408539 80.368027,135.822342 79.263992,136.117783 
	C79.239250,135.192200 79.485039,134.384964 79.865417,133.288879 
	C80.000000,133.000000 79.999664,133.000610 79.999664,133.000610 
	C80.578362,133.499390 81.157059,133.998169 81.885391,134.745850 
z"/>
<path fill="#BD9889" opacity="1.000000" stroke="none" 
	d="
M85.993156,125.980476 
	C85.200539,126.399834 84.407913,126.819191 83.328209,127.195412 
	C83.026535,126.680824 83.011948,126.209373 82.998398,125.371780 
	C82.999428,125.005630 83.017700,124.999832 83.342789,125.011246 
	C84.442970,125.341927 85.218063,125.661201 85.993156,125.980476 
z"/>
<path fill="#BD9889" opacity="1.000000" stroke="none" 
	d="
M67.992058,133.985779 
	C69.793800,133.985779 71.595535,133.985779 73.397278,133.985779 
	C73.385368,134.309845 73.373459,134.633896 73.361549,134.957962 
	C71.759956,134.787201 70.158356,134.616440 68.278160,134.222717 
	C67.999557,133.999741 67.992058,133.985779 67.992058,133.985779 
z"/>
<path fill="#C59F8D" opacity="1.000000" stroke="none" 
	d="
M63.850960,151.928955 
	C63.821175,152.501770 63.569057,152.857086 63.133331,153.333649 
	C62.604610,152.858322 62.259502,152.261765 61.914398,151.665192 
	C62.485809,151.680618 63.057217,151.696030 63.850960,151.928955 
z"/>
<path fill="#BD9889" opacity="1.000000" stroke="none" 
	d="
M80.000305,132.999695 
	C79.251160,133.000015 78.501717,133.000656 77.376129,133.000641 
	C77.000000,133.000000 76.996094,132.997192 76.996094,132.997192 
	C77.362495,132.313522 77.728889,131.629852 78.095291,130.946167 
	C78.649025,131.459869 79.202766,131.973557 79.878082,132.743927 
	C79.999664,133.000610 80.000000,133.000000 80.000305,132.999695 
z"/>
<path fill="#BD9889" opacity="1.000000" stroke="none" 
	d="
M77.108658,138.294418 
	C77.893631,138.836884 78.819595,139.669266 79.837570,140.792282 
	C79.036263,140.250061 78.142960,139.417191 77.108658,138.294418 
z"/>
<path fill="#C59F8D" opacity="1.000000" stroke="none" 
	d="
M46.205574,152.975922 
	C45.899010,152.566605 45.890621,152.164536 45.877296,151.461456 
	C46.840076,151.469299 47.807789,151.778122 48.775501,152.086945 
	C48.745232,152.326294 48.714962,152.565659 48.684692,152.805008 
	C47.957714,152.864395 47.230736,152.923767 46.205574,152.975922 
z"/>
<path fill="#C59F8D" opacity="1.000000" stroke="none" 
	d="
M73.276871,122.228729 
	C73.480003,121.713852 73.911118,121.393738 74.603088,120.995270 
	C75.144852,121.742279 75.425751,122.567657 75.834473,123.692307 
	C75.143143,123.468887 74.324005,122.946190 73.276871,122.228729 
z"/>
<path fill="#C59F8D" opacity="1.000000" stroke="none" 
	d="
M52.584576,150.959656 
	C52.844391,150.779800 53.099754,150.769791 53.355118,150.759766 
	C53.351192,150.903854 53.347271,151.047958 53.343346,151.192047 
	C53.088936,151.171188 52.834530,151.150330 52.584576,150.959656 
z"/>
<path fill="#BD9889" opacity="1.000000" stroke="none" 
	d="
M77.010315,127.379227 
	C77.482613,127.345901 78.023689,127.553436 78.764359,127.977753 
	C78.335670,128.003052 77.707390,127.811562 77.010315,127.379227 
z"/>
<path fill="#C59F8D" opacity="1.000000" stroke="none" 
	d="
M78.881348,147.113113 
	C78.560486,147.596481 77.913818,148.115601 77.098907,148.400116 
	C77.472290,147.826630 78.013916,147.487747 78.881348,147.113113 
z"/>
<path fill="#F3DFC8" opacity="1.000000" stroke="none" 
	d="
M63.439369,118.525330 
	C63.939716,118.773750 64.354355,119.299377 64.979439,119.986183 
	C64.577812,119.699081 63.965733,119.250801 63.439369,118.525330 
z"/>
<path fill="#C39E8C" opacity="1.000000" stroke="none" 
	d="
M81.278450,126.770859 
	C81.049355,126.507507 81.006256,126.045921 80.961334,125.004700 
	C80.959503,124.425064 81.028183,123.959534 81.028183,123.959534 
	C81.028183,123.959534 81.021729,123.977890 81.211449,124.127106 
	C81.647453,124.495987 81.847023,124.752068 81.999863,125.044563 
	C81.821388,125.553917 81.642914,126.063263 81.278450,126.770859 
z"/>
<path fill="#B58F82" opacity="1.000000" stroke="none" 
	d="
M82.248581,125.041786 
	C81.847023,124.752068 81.647453,124.495987 81.209221,124.125656 
	C81.490295,123.669449 81.963318,123.363899 82.725197,123.359703 
	C83.015274,124.107323 83.016487,124.553574 83.017700,124.999832 
	C83.017700,124.999832 82.999428,125.005630 82.997070,125.018333 
	C82.994705,125.031036 82.497299,125.039009 82.248581,125.041786 
z"/>
<path fill="#C59F8D" opacity="1.000000" stroke="none" 
	d="
M64.527252,135.175278 
	C64.282837,135.343140 64.057114,135.362534 63.831387,135.381943 
	C63.846901,135.255951 63.851295,135.023804 63.879692,135.020828 
	C64.099152,134.997833 64.323265,135.019211 64.527252,135.175278 
z"/>
<path fill="#C59F8D" opacity="1.000000" stroke="none" 
	d="
M67.991562,133.999268 
	C67.695107,133.844650 67.406654,133.690475 67.118202,133.536301 
	C67.334587,133.593750 67.550972,133.651184 67.879707,133.847198 
	C67.992058,133.985779 67.999557,133.999741 67.991562,133.999268 
z"/>
<path fill="#BD9889" opacity="1.000000" stroke="none" 
	d="
M77.001419,133.001938 
	C77.002838,133.003876 76.823250,133.285583 76.823250,133.285583 
	C76.823250,133.285583 76.837074,133.077698 76.916580,133.037445 
	C76.996094,132.997192 77.000000,133.000000 77.001419,133.001938 
z"/>
<path fill="#C59F8D" opacity="1.000000" stroke="none" 
	d="
M59.488464,138.507950 
	C59.479797,138.486130 59.497135,138.529770 59.488464,138.507950 
z"/>
<path fill="#41342C" opacity="1.000000" stroke="none" 
	d="
M76.738480,7.064518 
	C77.005913,7.443658 77.016029,7.887587 77.026718,8.664572 
	C76.845245,8.374854 76.663208,7.752080 76.738480,7.064518 
z"/>
<path fill="#44372F" opacity="1.000000" stroke="none" 
	d="
M135.688782,15.872654 
	C136.008728,16.007441 136.006454,16.502878 135.597137,16.828321 
	C129.458344,17.769405 123.728867,18.385046 117.563911,19.000580 
	C114.085625,18.667112 111.042809,18.333752 107.683594,17.768715 
	C106.411057,17.359886 105.461220,17.081394 104.497803,17.021458 
	C96.041832,16.495392 92.643990,13.502462 91.005447,5.071836 
	C91.791931,4.747588 92.578423,4.423340 93.680626,4.047235 
	C95.423370,3.679569 96.850403,3.363760 98.645187,3.041395 
	C99.208298,11.691301 104.186378,13.431177 112.855431,14.791672 
	C120.227821,15.948671 127.854614,15.484678 135.688782,15.872654 
z"/>
<path fill="#4C3F37" opacity="1.000000" stroke="none" 
	d="
M132.212891,12.202076 
	C132.857895,11.869213 133.716080,11.735433 134.787140,11.801574 
	C134.142029,12.134716 133.284073,12.267937 132.212891,12.202076 
z"/>
<path fill="#43362E" opacity="1.000000" stroke="none" 
	d="
M90.686127,5.204133 
	C92.643990,13.502462 96.041832,16.495392 104.497803,17.021458 
	C105.461220,17.081394 106.411057,17.359886 107.502640,18.047314 
	C106.627869,20.483450 101.775330,19.808298 103.626747,23.882067 
	C101.497749,23.530458 99.745667,23.223270 97.993591,22.916082 
	C96.933144,20.696342 88.720863,15.540441 86.630692,16.294380 
	C81.865402,18.013252 80.413643,14.158422 78.029663,11.380873 
	C82.125595,9.132475 86.246208,7.234453 90.686127,5.204133 
z"/>
<path fill="#C6A18F" opacity="1.000000" stroke="none" 
	d="
M102.118973,136.782684 
	C102.565926,131.863251 99.620834,128.344925 97.053589,124.292358 
	C100.967133,120.783844 105.699516,118.216621 108.683311,114.312866 
	C111.607574,110.487022 112.752098,105.300842 115.080429,100.346832 
	C115.647736,100.009247 115.812363,100.036537 115.976990,100.063820 
	C116.554016,103.296349 116.653358,106.713066 117.813171,109.720871 
	C119.867378,115.048180 118.532356,119.287041 115.060814,123.373840 
	C111.249756,127.860352 107.594139,132.478897 103.251404,137.017700 
	C102.461006,136.924530 102.289986,136.853607 102.118973,136.782684 
z"/>
<path fill="#32271D" opacity="1.000000" stroke="none" 
	d="
M116.131332,36.987030 
	C116.667610,37.447289 117.203888,37.907547 117.911499,38.907951 
	C118.397926,39.963688 118.713036,40.479275 119.028137,40.994862 
	C119.028137,40.994862 118.995506,40.993580 119.000137,41.405365 
	C118.988617,43.224201 118.972450,44.631260 118.956284,46.038315 
	C112.443359,40.802620 105.193649,40.092796 97.199303,41.800770 
	C94.298347,42.420555 91.029251,41.317169 87.490646,40.998116 
	C86.101532,39.570419 85.149895,38.144627 84.076500,36.422779 
	C84.789055,35.189236 85.623367,34.251751 87.131439,33.230804 
	C95.928177,33.756252 104.051163,34.365158 112.431152,35.006248 
	C113.128799,35.290367 113.569435,35.542305 114.195374,36.054878 
	C114.964226,36.539356 115.547783,36.763191 116.131332,36.987030 
z"/>
<path fill="#C39E8C" opacity="1.000000" stroke="none" 
	d="
M90.040970,116.651779 
	C86.979904,117.311157 83.813728,119.060135 81.456543,115.221603 
	C81.621498,114.551414 81.818855,114.281395 82.351776,113.944580 
	C87.157501,108.273224 91.627686,102.668640 96.097862,97.064064 
	C97.156540,96.447029 98.215218,95.830002 99.273895,95.212967 
	C99.640793,95.491661 100.007690,95.770355 100.374588,96.049042 
	C96.972130,102.804398 93.569672,109.559753 90.040970,116.651779 
z"/>
<path fill="#BA9585" opacity="1.000000" stroke="none" 
	d="
M119.926254,81.971603 
	C119.590530,84.012993 118.983253,85.821358 118.244041,88.022598 
	C118.971130,88.797577 120.031197,89.927452 121.177528,91.392273 
	C119.906761,91.727203 118.549721,91.727203 118.050919,91.727203 
	C115.434364,89.241867 113.084045,87.009415 111.022110,84.462936 
	C112.775978,83.395782 114.241463,82.642670 116.091263,81.692047 
	C114.690651,79.687073 113.688316,78.252220 112.685974,76.817368 
	C112.935501,76.212051 113.220688,75.618683 113.428192,74.999283 
	C114.210258,72.664726 115.256256,70.594650 118.269806,71.484802 
	C121.349152,72.394394 120.972046,74.603493 120.262444,77.040726 
	C119.826317,78.538673 119.841942,80.168152 119.926254,81.971603 
z"/>
<path fill="#EAD8C2" opacity="1.000000" stroke="none" 
	d="
M95.796356,96.989334 
	C91.627686,102.668640 87.157501,108.273224 82.018280,113.944458 
	C80.905273,114.001442 80.461319,113.991760 80.017357,113.982079 
	C79.553398,112.416817 79.089439,110.851555 78.850891,110.046753 
	C80.867470,108.058533 82.691544,106.450035 84.286903,104.639969 
	C86.365494,102.281639 88.005287,99.463562 90.353172,97.448296 
	C91.427948,96.525795 93.742531,97.047737 95.796356,96.989334 
z"/>
<path fill="#BE9A89" opacity="1.000000" stroke="none" 
	d="
M68.998413,80.470551 
	C67.655457,79.196915 65.353180,78.050087 65.164642,76.623848 
	C64.742157,73.427795 67.542274,73.845802 69.640450,74.021500 
	C72.978592,74.301033 76.369926,74.406006 79.620125,75.122787 
	C82.021400,75.652351 82.303215,77.011696 78.994980,77.913025 
	C76.114944,78.254013 73.840157,78.628815 71.183243,79.077530 
	C70.432449,79.495247 70.063782,79.839050 69.518173,80.248077 
	C69.341232,80.313309 68.998413,80.470551 68.998413,80.470551 
z"/>
<path fill="#2F1712" opacity="1.000000" stroke="none" 
	d="
M52.166260,60.341980 
	C51.580421,61.587181 51.029045,62.448914 50.469967,62.853889 
	C49.974697,57.933029 49.487129,53.468925 48.999561,49.004818 
	C49.002060,48.251541 49.004559,47.498268 49.014004,46.368183 
	C54.496521,45.314980 50.430984,40.243042 53.456188,37.387207 
	C53.680534,39.323071 53.625534,40.833572 54.112217,42.142693 
	C54.329182,42.726311 55.636169,42.904697 56.725555,43.133263 
	C57.002670,42.999519 57.033112,43.023285 57.033112,43.023285 
	C57.715313,43.733120 58.397514,44.442951 59.161385,45.513435 
	C54.451977,47.614071 50.120163,49.664974 52.302563,56.125977 
	C52.268616,57.403488 52.234673,58.680996 52.166260,60.341980 
z"/>
<path fill="#ECE4E2" opacity="1.000000" stroke="none" 
	d="
M71.565369,79.003616 
	C73.840157,78.628815 76.114944,78.254013 78.678940,78.000946 
	C77.360146,80.490967 76.022072,83.129890 74.031769,85.114815 
	C73.016861,86.126991 70.830887,85.964928 69.174248,86.333626 
	C69.078285,84.548668 68.982315,82.763702 68.942383,80.724648 
	C68.998413,80.470551 69.341232,80.313309 69.708206,80.540901 
	C70.571907,80.180199 71.068634,79.591911 71.565369,79.003616 
z"/>
<path fill="#C3A18F" opacity="1.000000" stroke="none" 
	d="
M52.625473,56.054214 
	C50.120163,49.664974 54.451977,47.614071 59.534039,45.626377 
	C60.388485,45.246407 60.951946,45.114147 61.794029,45.062592 
	C59.031231,48.756351 55.989807,52.369400 52.625473,56.054214 
z"/>
<path fill="#533A33" opacity="1.000000" stroke="none" 
	d="
M67.663589,67.622253 
	C64.402885,68.755211 61.491413,69.695625 58.579937,70.636040 
	C58.363796,69.889595 58.147659,69.143150 57.931519,68.396713 
	C61.828312,67.167114 65.725105,65.937515 69.621895,64.707924 
	C69.805748,65.154106 69.989601,65.600281 70.173454,66.046463 
	C69.453239,66.507545 68.733025,66.968620 67.663589,67.622253 
z"/>
<path fill="#DFCDB4" opacity="1.000000" stroke="none" 
	d="
M79.006081,95.015106 
	C76.721291,94.358643 74.436508,93.702171 72.151718,93.045708 
	C72.129051,92.414124 72.106377,91.782539 72.083702,91.150955 
	C74.462166,90.124992 76.840637,89.099030 79.500969,88.374756 
	C77.019264,90.482407 76.745872,92.593521 79.006081,95.015106 
z"/>
<path fill="#BA9686" opacity="1.000000" stroke="none" 
	d="
M112.399323,77.015579 
	C113.688316,78.252220 114.690651,79.687073 116.091263,81.692047 
	C114.241463,82.642670 112.775978,83.395782 111.013687,84.077972 
	C109.095192,81.313828 109.737267,79.085739 112.399323,77.015579 
z"/>
<path fill="#E8D6BD" opacity="1.000000" stroke="none" 
	d="
M79.244812,95.179779 
	C76.745872,92.593521 77.019264,90.482407 79.871475,88.365036 
	C83.640282,89.518425 83.469780,92.126778 79.244812,95.179779 
z"/>
<path fill="#F6E2C9" opacity="1.000000" stroke="none" 
	d="
M115.964943,99.673386 
	C115.812363,100.036537 115.647736,100.009247 115.232796,99.987900 
	C114.179291,97.894371 113.376099,95.794899 112.572906,93.695435 
	C113.240707,93.477425 113.908508,93.259422 114.576302,93.041412 
	C115.035172,95.121933 115.494034,97.202446 115.964943,99.673386 
z"/>
<path fill="#4E423C" opacity="1.000000" stroke="none" 
	d="
M102.078171,137.238739 
	C102.289986,136.853607 102.461006,136.924530 102.909561,137.007843 
	C103.390678,140.090439 103.594246,143.160629 103.709663,146.644348 
	C103.093460,143.936829 102.565414,140.815811 102.078171,137.238739 
z"/>
<path fill="#4E423C" opacity="1.000000" stroke="none" 
	d="
M102.594147,156.045715 
	C102.560135,153.986603 102.775955,151.656219 103.300453,149.133545 
	C103.354080,151.218994 103.099022,153.496719 102.594147,156.045715 
z"/>
<path fill="#EAD8C2" opacity="1.000000" stroke="none" 
	d="
M99.050583,91.032661 
	C97.935760,91.980484 96.513359,92.892006 95.090958,93.803535 
	C94.858253,93.278145 94.625549,92.752762 94.392845,92.227379 
	C95.842896,91.817039 97.292946,91.406700 99.050583,91.032661 
z"/>
<path fill="#F6E2C9" opacity="1.000000" stroke="none" 
	d="
M115.876877,151.344223 
	C116.543350,152.009750 116.983139,152.869598 117.422928,153.729446 
	C116.793076,153.888168 116.163223,154.046890 115.533371,154.205627 
	C115.572311,153.316605 115.611252,152.427567 115.876877,151.344223 
z"/>
<path fill="#C39E8C" opacity="1.000000" stroke="none" 
	d="
M83.342789,125.011246 
	C83.016487,124.553574 83.015274,124.107323 83.014114,123.326218 
	C84.093422,122.991196 85.172653,122.991020 86.658203,122.990204 
	C86.865723,123.836029 86.666924,124.682487 86.230637,125.754715 
	C85.218063,125.661201 84.442970,125.341927 83.342789,125.011246 
z"/>
<path fill="#F6E2C9" opacity="1.000000" stroke="none" 
	d="
M114.039490,156.582855 
	C114.219795,156.843277 114.229584,157.099640 114.239372,157.356018 
	C114.094711,157.352356 113.950050,157.348679 113.805389,157.345001 
	C113.826591,157.089584 113.847794,156.834198 114.039490,156.582855 
z"/>
<path fill="#C39E8C" opacity="1.000000" stroke="none" 
	d="
M87.506638,122.008163 
	C87.319946,121.547264 87.326889,120.858788 87.593895,120.099075 
	C87.802727,120.612091 87.751495,121.196327 87.506638,122.008163 
z"/>
<path fill="#F2DFC8" opacity="1.000000" stroke="none" 
	d="
M73.866783,106.550430 
	C73.827011,106.470879 74.167374,106.446060 74.167374,106.446060 
	C74.167374,106.446060 73.906555,106.629974 73.866783,106.550430 
z"/>
<path fill="#F6E2C9" opacity="1.000000" stroke="none" 
	d="
M118.641907,144.989899 
	C118.640923,145.074860 118.366791,144.985413 118.366791,144.985413 
	C118.366791,144.985413 118.642899,144.904938 118.641907,144.989899 
z"/>
<path fill="#EAD8C2" opacity="1.000000" stroke="none" 
	d="
M77.151512,106.450287 
	C77.195526,106.535606 76.827797,106.564217 76.827797,106.564217 
	C76.827797,106.564217 77.107498,106.364967 77.151512,106.450287 
z"/>
<path fill="#F2DFC8" opacity="1.000000" stroke="none" 
	d="
M80.019936,114.263962 
	C80.461319,113.991760 80.905273,114.001442 81.682724,114.011246 
	C81.818855,114.281395 81.621498,114.551414 81.221481,114.976105 
	C81.018829,115.130768 80.531631,115.119705 80.288376,115.114433 
	C80.037582,114.921387 80.030045,114.733612 80.019936,114.263962 
z"/>
<path fill="#AB9A88" opacity="1.000000" stroke="none" 
	d="
M138.839630,111.857529 
	C138.886398,112.033676 138.709930,112.408096 138.249237,112.905212 
	C138.182114,112.703865 138.399261,112.379837 138.839630,111.857529 
z"/>
<path fill="#F2DFC8" opacity="1.000000" stroke="none" 
	d="
M74.878677,119.833023 
	C74.671860,119.941231 74.429703,119.763046 74.211761,119.261223 
	C74.398811,119.206535 74.601265,119.409554 74.878677,119.833023 
z"/>
<path fill="#42352D" opacity="1.000000" stroke="none" 
	d="
M114.010078,35.794239 
	C113.569435,35.542305 113.128799,35.290367 112.267235,34.766670 
	C111.513741,34.023827 111.181168,33.552742 110.848595,33.081657 
	C112.143166,31.573517 113.437744,30.065378 114.732315,28.557240 
	C113.354736,27.871546 111.977165,27.185852 110.301819,26.028404 
	C109.997093,25.381151 109.990135,25.205648 110.104050,24.726818 
	C109.762589,23.640484 109.076118,22.129898 108.874176,22.192110 
	C107.525009,22.607748 106.279167,23.358824 104.750076,23.991510 
	C104.500359,23.982021 104.003670,23.926487 104.003670,23.926487 
	C101.775330,19.808298 106.627869,20.483450 107.819046,18.278988 
	C111.042809,18.333752 114.085625,18.667112 117.564072,19.333813 
	C117.999802,20.111486 117.999901,20.555820 118.000000,21.000153 
	C117.038956,22.130327 114.084137,22.402510 116.528671,24.940277 
	C120.573692,29.139582 120.478416,31.126637 115.827240,35.712509 
	C114.888565,35.913048 114.449318,35.853642 114.010078,35.794239 
z"/>
<path fill="#2B1610" opacity="1.000000" stroke="none" 
	d="
M110.494835,33.050896 
	C111.181168,33.552742 111.513741,34.023827 112.010223,34.734489 
	C104.051163,34.365158 95.928177,33.756252 87.406647,33.072769 
	C87.497215,32.685211 87.986336,32.372231 88.765427,31.988995 
	C96.083954,32.285870 103.112518,32.653004 110.494835,33.050896 
z"/>
<path fill="#63534A" opacity="1.000000" stroke="none" 
	d="
M103.626747,23.882067 
	C104.003670,23.926487 104.500359,23.982021 105.082291,24.147146 
	C107.103874,24.551563 108.543533,24.790855 109.983185,25.030148 
	C109.990135,25.205648 109.997093,25.381151 110.012741,25.820950 
	C103.738007,25.277782 97.454575,24.470324 91.171150,23.662863 
	C91.245224,23.111994 91.319290,22.561125 91.393364,22.010256 
	C93.339020,22.313498 95.284683,22.616739 97.611969,22.918030 
	C99.745667,23.223270 101.497749,23.530458 103.626747,23.882067 
z"/>
<path fill="#43362E" opacity="1.000000" stroke="none" 
	d="
M88.509125,21.512335 
	C88.486809,21.521193 88.531441,21.503477 88.509125,21.512335 
z"/>
<path fill="#342520" opacity="1.000000" stroke="none" 
	d="
M70.508606,22.515961 
	C70.485931,22.525499 70.531281,22.506424 70.508606,22.515961 
z"/>
<path fill="#2F1712" opacity="1.000000" stroke="none" 
	d="
M48.893768,45.864807 
	C48.998714,45.981522 48.502609,45.993706 48.254578,45.996426 
	C48.208561,45.684303 48.469318,45.600616 48.893768,45.864807 
z"/>
<path fill="#2F1712" opacity="1.000000" stroke="none" 
	d="
M58.018063,42.013062 
	C57.862789,42.293816 57.663231,42.538433 57.226246,42.885101 
	C57.033112,43.023285 57.002670,42.999519 56.990219,42.984268 
	C57.142757,42.694687 57.348232,42.455070 57.797279,42.124954 
	C58.000370,41.999744 58.018063,42.013062 58.018063,42.013062 
z"/>
<path fill="#2F1712" opacity="1.000000" stroke="none" 
	d="
M57.993660,41.990982 
	C57.986954,41.982220 58.183174,41.702850 58.183174,41.702850 
	C58.183174,41.702850 58.176971,41.925720 58.097519,41.969391 
	C58.018063,42.013062 58.000370,41.999744 57.993660,41.990982 
z"/>
<path fill="#2D2E2F" opacity="1.000000" stroke="none" 
	d="
M48.727081,49.239471 
	C49.487129,53.468925 49.974697,57.933029 50.230785,62.698441 
	C49.540787,62.993729 49.082272,62.987720 48.044933,62.980110 
	C47.466114,62.978516 46.995365,62.951889 46.995365,62.951889 
	C46.527119,61.749699 46.058876,60.547508 45.309444,59.163227 
	C45.471046,55.560093 43.314083,51.202099 48.727081,49.239471 
z"/>
<path fill="#422F29" opacity="1.000000" stroke="none" 
	d="
M44.754364,58.706703 
	C44.539181,59.609493 44.097557,60.209473 43.365608,60.862930 
	C42.368259,57.403080 41.661240,53.889751 40.954224,50.376427 
	C41.530277,50.267059 42.106327,50.157692 42.682381,50.048321 
	C43.297562,52.833515 43.912739,55.618706 44.754364,58.706703 
z"/>
<path fill="#422F29" opacity="1.000000" stroke="none" 
	d="
M46.911755,63.092049 
	C46.995365,62.951889 47.466114,62.978516 47.701031,62.984592 
	C47.566681,63.071182 47.197414,63.151699 46.911755,63.092049 
z"/>
<path fill="#2B1610" opacity="1.000000" stroke="none" 
	d="
M118.962997,46.362907 
	C118.972450,44.631260 118.988617,43.224201 119.013763,41.395615 
	C119.316803,41.113007 119.566032,41.308937 119.910538,41.755798 
	C120.799477,43.006001 121.548332,44.062279 122.595573,45.539440 
	C121.944115,46.054111 120.789497,46.966293 119.297989,47.932770 
	C118.963982,47.553875 118.966850,47.120689 118.962997,46.362907 
z"/>
<path fill="#2B1610" opacity="1.000000" stroke="none" 
	d="
M118.805176,48.100868 
	C118.851082,48.249146 118.656380,48.490604 118.224884,48.827705 
	C118.174873,48.676735 118.367043,48.433632 118.805176,48.100868 
z"/>
<path fill="#42352D" opacity="1.000000" stroke="none" 
	d="
M131.236664,25.166336 
	C134.225327,25.163631 137.213989,25.160927 140.596298,25.146063 
	C140.297546,26.016573 139.605148,26.899246 138.784042,27.946012 
	C139.765350,28.998888 140.865494,30.179247 142.660339,32.104977 
	C139.053940,32.104977 136.529205,32.104977 135.422501,32.104977 
	C129.906082,28.152374 125.227150,24.799843 120.598045,20.989403 
	C123.431915,20.354404 126.215958,20.177317 128.949860,20.325697 
	C129.678711,22.156221 130.457687,23.661278 131.236664,25.166336 
z"/>
<path fill="#43362E" opacity="1.000000" stroke="none" 
	d="
M129.000000,20.000229 
	C126.215958,20.177317 123.431915,20.354404 120.323936,20.765823 
	C119.555557,21.000141 119.111107,21.000130 118.333328,21.000135 
	C117.999901,20.555820 117.999802,20.111486 117.999542,19.333920 
	C123.728867,18.385046 129.458344,17.769405 135.597565,17.076042 
	C136.284546,17.157976 136.526611,17.359779 136.651108,18.009804 
	C135.712448,18.943993 134.856232,19.472109 133.685486,19.958605 
	C131.913986,19.944733 130.456985,19.972479 129.000000,20.000229 
z"/>
<path fill="#2C1811" opacity="1.000000" stroke="none" 
	d="
M147.927704,49.626091 
	C142.669189,48.466438 137.304825,46.959145 131.991272,45.186539 
	C137.302002,46.373634 142.561951,47.826042 147.927704,49.626091 
z"/>
<path fill="#2B1610" opacity="1.000000" stroke="none" 
	d="
M114.195374,36.054878 
	C114.449318,35.853642 114.888565,35.913048 115.658546,36.001862 
	C115.989288,36.031273 116.042984,36.511524 116.087158,36.749275 
	C115.547783,36.763191 114.964226,36.539356 114.195374,36.054878 
z"/>
<path fill="#2B1610" opacity="1.000000" stroke="none" 
	d="
M118.989120,40.690956 
	C118.713036,40.479275 118.397926,39.963688 118.053047,39.134972 
	C118.332214,39.343575 118.641159,39.865311 118.989120,40.690956 
z"/>
<path fill="#42352D" opacity="1.000000" stroke="none" 
	d="
M134.000000,20.000227 
	C134.856232,19.472109 135.712448,18.943993 136.787872,18.203789 
	C139.731461,17.651772 142.455826,17.311844 145.609863,16.954346 
	C146.458389,16.970812 146.877258,17.004848 147.609100,17.059422 
	C147.955429,17.396914 148.005356,17.711231 148.118225,18.254015 
	C144.002457,20.226690 139.840317,21.968264 135.277344,23.474049 
	C134.584320,22.158915 134.292160,21.079573 134.000000,20.000227 
z"/>
<path fill="#41342C" opacity="1.000000" stroke="none" 
	d="
M133.685486,19.958607 
	C134.292160,21.079573 134.584320,22.158915 134.933228,23.566736 
	C133.955872,24.290308 132.921768,24.685400 131.562164,25.123413 
	C130.457687,23.661278 129.678711,22.156221 128.949860,20.325695 
	C130.456985,19.972479 131.913986,19.944733 133.685486,19.958607 
z"/>
<path fill="#F6E2C9" opacity="1.000000" stroke="none" 
	d="
M100.804733,155.917572 
	C100.687172,156.616821 100.187599,157.259781 99.302010,157.706238 
	C99.418243,156.960251 99.920486,156.410767 100.804733,155.917572 
z"/>
<path fill="#946E5E" opacity="1.000000" stroke="none" 
	d="
M80.706940,124.011032 
	C81.028183,123.959534 80.959503,124.425064 80.930740,124.657890 
	C80.446899,125.182076 79.991814,125.473434 79.290596,125.875259 
	C79.491539,125.344666 79.938622,124.703598 80.706940,124.011032 
z"/>
<path fill="#C6A18E" opacity="1.000000" stroke="none" 
	d="
M55.412773,125.040207 
	C55.155228,125.218445 54.901749,125.228088 54.648270,125.237732 
	C54.651936,125.094688 54.655602,124.951645 54.659267,124.808601 
	C54.911793,124.829605 55.164318,124.850601 55.412773,125.040207 
z"/>
<path fill="#86565A" opacity="1.000000" stroke="none" 
	d="
M71.183243,79.077530 
	C71.068634,79.591911 70.571907,80.180199 69.885147,80.475677 
	C70.063782,79.839050 70.432449,79.495247 71.183243,79.077530 
z"/>
<path fill="#41342C" opacity="1.000000" stroke="none" 
	d="
M110.104050,24.726818 
	C108.543533,24.790855 107.103874,24.551563 105.332001,24.156635 
	C106.279167,23.358824 107.525009,22.607748 108.874176,22.192110 
	C109.076118,22.129898 109.762589,23.640484 110.104050,24.726818 
z"/>
</svg>